<svg viewBox="0 0 330 200" xmlns="http://www.w3.org/2000/svg"><rect width="100%" height="100%" fill="white"/>
<g><g><g><g><g><line x1="51.53200149536133" y1="176.34902656983303" x2="46.53200149536133" y2="176.34902656983303" style="visibility: inherit;" fill="rgb(0, 0, 0)" stroke="rgb(204, 204, 204)" stroke-width="1px"></line><line x1="51.53200149536133" y1="174.58001283451242" x2="46.53200149536133" y2="174.58001283451242" style="visibility: inherit;" fill="rgb(0, 0, 0)" stroke="rgb(204, 204, 204)" stroke-width="1px"></line><line x1="51.53200149536133" y1="173.01963213474852" x2="46.53200149536133" y2="173.01963213474852" style="visibility: inherit;" fill="rgb(0, 0, 0)" stroke="rgb(204, 204, 204)" stroke-width="1px"></line><line x1="51.53200149536133" y1="171.62382403527596" x2="46.53200149536133" y2="171.62382403527596" style="visibility: inherit;" fill="rgb(0, 0, 0)" stroke="rgb(204, 204, 204)" stroke-width="1px"></line><line x1="51.53200149536133" y1="162.44106289642352" x2="46.53200149536133" y2="162.44106289642352" style="visibility: inherit;" fill="rgb(0, 0, 0)" stroke="rgb(204, 204, 204)" stroke-width="1px"></line><line x1="51.53200149536133" y1="157.06949197711532" x2="46.53200149536133" y2="157.06949197711532" style="visibility: inherit;" fill="rgb(0, 0, 0)" stroke="rgb(204, 204, 204)" stroke-width="1px"></line><line x1="51.53200149536133" y1="153.2583017575711" x2="46.53200149536133" y2="153.2583017575711" style="visibility: inherit;" fill="rgb(0, 0, 0)" stroke="rgb(204, 204, 204)" stroke-width="1px"></line><line x1="51.53200149536133" y1="150.30211295833462" x2="46.53200149536133" y2="150.30211295833462" style="visibility: inherit;" fill="rgb(0, 0, 0)" stroke="rgb(204, 204, 204)" stroke-width="1px"></line><line x1="51.53200149536133" y1="147.88673083826293" x2="46.53200149536133" y2="147.88673083826293" style="visibility: inherit;" fill="rgb(0, 0, 0)" stroke="rgb(204, 204, 204)" stroke-width="1px"></line><line x1="51.53200149536133" y1="145.8445543540393" x2="46.53200149536133" y2="145.8445543540393" style="visibility: inherit;" fill="rgb(0, 0, 0)" stroke="rgb(204, 204, 204)" stroke-width="1px"></line><line x1="51.53200149536133" y1="144.07554061871866" x2="46.53200149536133" y2="144.07554061871866" style="visibility: inherit;" fill="rgb(0, 0, 0)" stroke="rgb(204, 204, 204)" stroke-width="1px"></line><line x1="51.53200149536133" y1="142.51515991895477" x2="46.53200149536133" y2="142.51515991895477" style="visibility: inherit;" fill="rgb(0, 0, 0)" stroke="rgb(204, 204, 204)" stroke-width="1px"></line><line x1="51.53200149536133" y1="141.11935181948218" x2="46.53200149536133" y2="141.11935181948218" style="visibility: inherit;" fill="rgb(0, 0, 0)" stroke="rgb(204, 204, 204)" stroke-width="1px"></line><line x1="51.53200149536133" y1="131.9365906806298" x2="46.53200149536133" y2="131.9365906806298" style="visibility: inherit;" fill="rgb(0, 0, 0)" stroke="rgb(204, 204, 204)" stroke-width="1px"></line><line x1="51.53200149536133" y1="126.56501976132161" x2="46.53200149536133" y2="126.56501976132161" style="visibility: inherit;" fill="rgb(0, 0, 0)" stroke="rgb(204, 204, 204)" stroke-width="1px"></line><line x1="51.53200149536133" y1="122.75382954177735" x2="46.53200149536133" y2="122.75382954177735" style="visibility: inherit;" fill="rgb(0, 0, 0)" stroke="rgb(204, 204, 204)" stroke-width="1px"></line><line x1="51.53200149536133" y1="119.79764074254088" x2="46.53200149536133" y2="119.79764074254088" style="visibility: inherit;" fill="rgb(0, 0, 0)" stroke="rgb(204, 204, 204)" stroke-width="1px"></line><line x1="51.53200149536133" y1="117.38225862246918" x2="46.53200149536133" y2="117.38225862246918" style="visibility: inherit;" fill="rgb(0, 0, 0)" stroke="rgb(204, 204, 204)" stroke-width="1px"></line><line x1="51.53200149536133" y1="115.34008213824555" x2="46.53200149536133" y2="115.34008213824555" style="visibility: inherit;" fill="rgb(0, 0, 0)" stroke="rgb(204, 204, 204)" stroke-width="1px"></line><line x1="51.53200149536133" y1="113.57106840292492" x2="46.53200149536133" y2="113.57106840292492" style="visibility: inherit;" fill="rgb(0, 0, 0)" stroke="rgb(204, 204, 204)" stroke-width="1px"></line><line x1="51.53200149536133" y1="112.01068770316101" x2="46.53200149536133" y2="112.01068770316101" style="visibility: inherit;" fill="rgb(0, 0, 0)" stroke="rgb(204, 204, 204)" stroke-width="1px"></line><line x1="51.53200149536133" y1="110.61487960368845" x2="46.53200149536133" y2="110.61487960368845" style="visibility: inherit;" fill="rgb(0, 0, 0)" stroke="rgb(204, 204, 204)" stroke-width="1px"></line><line x1="51.53200149536133" y1="101.43211846483601" x2="46.53200149536133" y2="101.43211846483601" style="visibility: inherit;" fill="rgb(0, 0, 0)" stroke="rgb(204, 204, 204)" stroke-width="1px"></line><line x1="51.53200149536133" y1="96.06054754552787" x2="46.53200149536133" y2="96.06054754552787" style="visibility: inherit;" fill="rgb(0, 0, 0)" stroke="rgb(204, 204, 204)" stroke-width="1px"></line><line x1="51.53200149536133" y1="92.24935732598358" x2="46.53200149536133" y2="92.24935732598358" style="visibility: inherit;" fill="rgb(0, 0, 0)" stroke="rgb(204, 204, 204)" stroke-width="1px"></line><line x1="51.53200149536133" y1="89.29316852674712" x2="46.53200149536133" y2="89.29316852674712" style="visibility: inherit;" fill="rgb(0, 0, 0)" stroke="rgb(204, 204, 204)" stroke-width="1px"></line><line x1="51.53200149536133" y1="86.87778640667544" x2="46.53200149536133" y2="86.87778640667544" style="visibility: inherit;" fill="rgb(0, 0, 0)" stroke="rgb(204, 204, 204)" stroke-width="1px"></line><line x1="51.53200149536133" y1="84.83560992245181" x2="46.53200149536133" y2="84.83560992245181" style="visibility: inherit;" fill="rgb(0, 0, 0)" stroke="rgb(204, 204, 204)" stroke-width="1px"></line><line x1="51.53200149536133" y1="83.06659618713118" x2="46.53200149536133" y2="83.06659618713118" style="visibility: inherit;" fill="rgb(0, 0, 0)" stroke="rgb(204, 204, 204)" stroke-width="1px"></line><line x1="51.53200149536133" y1="81.50621548736727" x2="46.53200149536133" y2="81.50621548736727" style="visibility: inherit;" fill="rgb(0, 0, 0)" stroke="rgb(204, 204, 204)" stroke-width="1px"></line><line x1="51.53200149536133" y1="80.1104073878947" x2="46.53200149536133" y2="80.1104073878947" style="visibility: inherit;" fill="rgb(0, 0, 0)" stroke="rgb(204, 204, 204)" stroke-width="1px"></line><line x1="51.53200149536133" y1="70.9276462490423" x2="46.53200149536133" y2="70.9276462490423" style="visibility: inherit;" fill="rgb(0, 0, 0)" stroke="rgb(204, 204, 204)" stroke-width="1px"></line><line x1="51.53200149536133" y1="65.55607532973413" x2="46.53200149536133" y2="65.55607532973413" style="visibility: inherit;" fill="rgb(0, 0, 0)" stroke="rgb(204, 204, 204)" stroke-width="1px"></line><line x1="51.53200149536133" y1="61.74488511018986" x2="46.53200149536133" y2="61.74488511018986" style="visibility: inherit;" fill="rgb(0, 0, 0)" stroke="rgb(204, 204, 204)" stroke-width="1px"></line><line x1="51.53200149536133" y1="58.788696310953384" x2="46.53200149536133" y2="58.788696310953384" style="visibility: inherit;" fill="rgb(0, 0, 0)" stroke="rgb(204, 204, 204)" stroke-width="1px"></line><line x1="51.53200149536133" y1="56.37331419088168" x2="46.53200149536133" y2="56.37331419088168" style="visibility: inherit;" fill="rgb(0, 0, 0)" stroke="rgb(204, 204, 204)" stroke-width="1px"></line><line x1="51.53200149536133" y1="54.33113770665806" x2="46.53200149536133" y2="54.33113770665806" style="visibility: inherit;" fill="rgb(0, 0, 0)" stroke="rgb(204, 204, 204)" stroke-width="1px"></line><line x1="51.53200149536133" y1="52.562123971337435" x2="46.53200149536133" y2="52.562123971337435" style="visibility: inherit;" fill="rgb(0, 0, 0)" stroke="rgb(204, 204, 204)" stroke-width="1px"></line><line x1="51.53200149536133" y1="51.00174327157353" x2="46.53200149536133" y2="51.00174327157353" style="visibility: inherit;" fill="rgb(0, 0, 0)" stroke="rgb(204, 204, 204)" stroke-width="1px"></line><line x1="51.53200149536133" y1="49.605935172100956" x2="46.53200149536133" y2="49.605935172100956" style="visibility: inherit;" fill="rgb(0, 0, 0)" stroke="rgb(204, 204, 204)" stroke-width="1px"></line><line x1="51.53200149536133" y1="40.42317403324853" x2="46.53200149536133" y2="40.42317403324853" style="visibility: inherit;" fill="rgb(0, 0, 0)" stroke="rgb(204, 204, 204)" stroke-width="1px"></line><line x1="51.53200149536133" y1="35.05160311394038" x2="46.53200149536133" y2="35.05160311394038" style="visibility: inherit;" fill="rgb(0, 0, 0)" stroke="rgb(204, 204, 204)" stroke-width="1px"></line><line x1="51.53200149536133" y1="31.2404128943961" x2="46.53200149536133" y2="31.2404128943961" style="visibility: inherit;" fill="rgb(0, 0, 0)" stroke="rgb(204, 204, 204)" stroke-width="1px"></line><line x1="51.53200149536133" y1="28.284224095159644" x2="46.53200149536133" y2="28.284224095159644" style="visibility: inherit;" fill="rgb(0, 0, 0)" stroke="rgb(204, 204, 204)" stroke-width="1px"></line><line x1="51.53200149536133" y1="25.868841975087953" x2="46.53200149536133" y2="25.868841975087953" style="visibility: inherit;" fill="rgb(0, 0, 0)" stroke="rgb(204, 204, 204)" stroke-width="1px"></line><line x1="51.53200149536133" y1="23.82666549086432" x2="46.53200149536133" y2="23.82666549086432" style="visibility: inherit;" fill="rgb(0, 0, 0)" stroke="rgb(204, 204, 204)" stroke-width="1px"></line><line x1="51.53200149536133" y1="22.057651755543674" x2="46.53200149536133" y2="22.057651755543674" style="visibility: inherit;" fill="rgb(0, 0, 0)" stroke="rgb(204, 204, 204)" stroke-width="1px"></line><line x1="51.53200149536133" y1="20.497271055779787" x2="46.53200149536133" y2="20.497271055779787" style="visibility: inherit;" fill="rgb(0, 0, 0)" stroke="rgb(204, 204, 204)" stroke-width="1px"></line><line x1="51.53200149536133" y1="19.101462956307216" x2="46.53200149536133" y2="19.101462956307216" style="visibility: inherit;" fill="rgb(0, 0, 0)" stroke="rgb(204, 204, 204)" stroke-width="1px"></line><line x1="51.53200149536133" y1="9.918701817454789" x2="46.53200149536133" y2="9.918701817454789" style="visibility: inherit;" fill="rgb(0, 0, 0)" stroke="rgb(204, 204, 204)" stroke-width="1px"></line><line x1="51.53200149536133" y1="4.54713089814664" x2="46.53200149536133" y2="4.54713089814664" style="visibility: inherit;" fill="rgb(0, 0, 0)" stroke="rgb(204, 204, 204)" stroke-width="1px"></line><line x1="51.53200149536133" y1="0.7359406786023793" x2="46.53200149536133" y2="0.7359406786023793" style="visibility: inherit;" fill="rgb(0, 0, 0)" stroke="rgb(204, 204, 204)" stroke-width="1px"></line></g><g transform="translate(41.53200149536133, 0)"><text style="text-anchor: end; visibility: hidden; font-family: Roboto, sans-serif; font-size: 12px; font-weight: 200;" x="0" y="176.34902656983303" dx="0em" dy="0.3em" fill="rgb(33, 33, 33)" stroke="none" stroke-width="1px">7e-6</text><text style="text-anchor: end; visibility: hidden; font-family: Roboto, sans-serif; font-size: 12px; font-weight: 200;" x="0" y="174.58001283451242" dx="0em" dy="0.3em" fill="rgb(33, 33, 33)" stroke="none" stroke-width="1px">8e-6</text><text style="text-anchor: end; visibility: hidden; font-family: Roboto, sans-serif; font-size: 12px; font-weight: 200;" x="0" y="173.01963213474852" dx="0em" dy="0.3em" fill="rgb(33, 33, 33)" stroke="none" stroke-width="1px">9e-6</text><text style="text-anchor: end; visibility: hidden; font-family: Roboto, sans-serif; font-size: 12px; font-weight: 200;" x="0" y="171.62382403527596" dx="0em" dy="0.3em" fill="rgb(33, 33, 33)" stroke="none" stroke-width="1px">1e-5</text><text style="text-anchor: end; visibility: inherit; font-family: Roboto, sans-serif; font-size: 12px; font-weight: 200;" x="0" y="162.44106289642352" dx="0em" dy="0.3em" fill="rgb(33, 33, 33)" stroke="none" stroke-width="1px">2e-5</text><text style="text-anchor: end; visibility: hidden; font-family: Roboto, sans-serif; font-size: 12px; font-weight: 200;" x="0" y="157.06949197711532" dx="0em" dy="0.3em" fill="rgb(33, 33, 33)" stroke="none" stroke-width="1px">3e-5</text><text style="text-anchor: end; visibility: hidden; font-family: Roboto, sans-serif; font-size: 12px; font-weight: 200;" x="0" y="153.2583017575711" dx="0em" dy="0.3em" fill="rgb(33, 33, 33)" stroke="none" stroke-width="1px">4e-5</text><text style="text-anchor: end; visibility: hidden; font-family: Roboto, sans-serif; font-size: 12px; font-weight: 200;" x="0" y="150.30211295833462" dx="0em" dy="0.3em" fill="rgb(33, 33, 33)" stroke="none" stroke-width="1px">5e-5</text><text style="text-anchor: end; visibility: hidden; font-family: Roboto, sans-serif; font-size: 12px; font-weight: 200;" x="0" y="147.88673083826293" dx="0em" dy="0.3em" fill="rgb(33, 33, 33)" stroke="none" stroke-width="1px">6e-5</text><text style="text-anchor: end; visibility: hidden; font-family: Roboto, sans-serif; font-size: 12px; font-weight: 200;" x="0" y="145.8445543540393" dx="0em" dy="0.3em" fill="rgb(33, 33, 33)" stroke="none" stroke-width="1px">7e-5</text><text style="text-anchor: end; visibility: hidden; font-family: Roboto, sans-serif; font-size: 12px; font-weight: 200;" x="0" y="144.07554061871866" dx="0em" dy="0.3em" fill="rgb(33, 33, 33)" stroke="none" stroke-width="1px">8e-5</text><text style="text-anchor: end; visibility: hidden; font-family: Roboto, sans-serif; font-size: 12px; font-weight: 200;" x="0" y="142.51515991895477" dx="0em" dy="0.3em" fill="rgb(33, 33, 33)" stroke="none" stroke-width="1px">9e-5</text><text style="text-anchor: end; visibility: hidden; font-family: Roboto, sans-serif; font-size: 12px; font-weight: 200;" x="0" y="141.11935181948218" dx="0em" dy="0.3em" fill="rgb(33, 33, 33)" stroke="none" stroke-width="1px">1e-4</text><text style="text-anchor: end; visibility: inherit; font-family: Roboto, sans-serif; font-size: 12px; font-weight: 200;" x="0" y="131.9365906806298" dx="0em" dy="0.3em" fill="rgb(33, 33, 33)" stroke="none" stroke-width="1px">2e-4</text><text style="text-anchor: end; visibility: hidden; font-family: Roboto, sans-serif; font-size: 12px; font-weight: 200;" x="0" y="126.56501976132161" dx="0em" dy="0.3em" fill="rgb(33, 33, 33)" stroke="none" stroke-width="1px">3e-4</text><text style="text-anchor: end; visibility: hidden; font-family: Roboto, sans-serif; font-size: 12px; font-weight: 200;" x="0" y="122.75382954177735" dx="0em" dy="0.3em" fill="rgb(33, 33, 33)" stroke="none" stroke-width="1px">4e-4</text><text style="text-anchor: end; visibility: hidden; font-family: Roboto, sans-serif; font-size: 12px; font-weight: 200;" x="0" y="119.79764074254088" dx="0em" dy="0.3em" fill="rgb(33, 33, 33)" stroke="none" stroke-width="1px">5e-4</text><text style="text-anchor: end; visibility: hidden; font-family: Roboto, sans-serif; font-size: 12px; font-weight: 200;" x="0" y="117.38225862246918" dx="0em" dy="0.3em" fill="rgb(33, 33, 33)" stroke="none" stroke-width="1px">6e-4</text><text style="text-anchor: end; visibility: hidden; font-family: Roboto, sans-serif; font-size: 12px; font-weight: 200;" x="0" y="115.34008213824555" dx="0em" dy="0.3em" fill="rgb(33, 33, 33)" stroke="none" stroke-width="1px">7e-4</text><text style="text-anchor: end; visibility: hidden; font-family: Roboto, sans-serif; font-size: 12px; font-weight: 200;" x="0" y="113.57106840292492" dx="0em" dy="0.3em" fill="rgb(33, 33, 33)" stroke="none" stroke-width="1px">8e-4</text><text style="text-anchor: end; visibility: hidden; font-family: Roboto, sans-serif; font-size: 12px; font-weight: 200;" x="0" y="112.01068770316101" dx="0em" dy="0.3em" fill="rgb(33, 33, 33)" stroke="none" stroke-width="1px">9e-4</text><text style="text-anchor: end; visibility: hidden; font-family: Roboto, sans-serif; font-size: 12px; font-weight: 200;" x="0" y="110.61487960368845" dx="0em" dy="0.3em" fill="rgb(33, 33, 33)" stroke="none" stroke-width="1px">1e-3</text><text style="text-anchor: end; visibility: inherit; font-family: Roboto, sans-serif; font-size: 12px; font-weight: 200;" x="0" y="101.43211846483601" dx="0em" dy="0.3em" fill="rgb(33, 33, 33)" stroke="none" stroke-width="1px">2e-3</text><text style="text-anchor: end; visibility: hidden; font-family: Roboto, sans-serif; font-size: 12px; font-weight: 200;" x="0" y="96.06054754552787" dx="0em" dy="0.3em" fill="rgb(33, 33, 33)" stroke="none" stroke-width="1px">3e-3</text><text style="text-anchor: end; visibility: hidden; font-family: Roboto, sans-serif; font-size: 12px; font-weight: 200;" x="0" y="92.24935732598358" dx="0em" dy="0.3em" fill="rgb(33, 33, 33)" stroke="none" stroke-width="1px">4e-3</text><text style="text-anchor: end; visibility: hidden; font-family: Roboto, sans-serif; font-size: 12px; font-weight: 200;" x="0" y="89.29316852674712" dx="0em" dy="0.3em" fill="rgb(33, 33, 33)" stroke="none" stroke-width="1px">5e-3</text><text style="text-anchor: end; visibility: hidden; font-family: Roboto, sans-serif; font-size: 12px; font-weight: 200;" x="0" y="86.87778640667544" dx="0em" dy="0.3em" fill="rgb(33, 33, 33)" stroke="none" stroke-width="1px">6e-3</text><text style="text-anchor: end; visibility: hidden; font-family: Roboto, sans-serif; font-size: 12px; font-weight: 200;" x="0" y="84.83560992245181" dx="0em" dy="0.3em" fill="rgb(33, 33, 33)" stroke="none" stroke-width="1px">7e-3</text><text style="text-anchor: end; visibility: hidden; font-family: Roboto, sans-serif; font-size: 12px; font-weight: 200;" x="0" y="83.06659618713118" dx="0em" dy="0.3em" fill="rgb(33, 33, 33)" stroke="none" stroke-width="1px">8e-3</text><text style="text-anchor: end; visibility: hidden; font-family: Roboto, sans-serif; font-size: 12px; font-weight: 200;" x="0" y="81.50621548736727" dx="0em" dy="0.3em" fill="rgb(33, 33, 33)" stroke="none" stroke-width="1px">9e-3</text><text style="text-anchor: end; visibility: hidden; font-family: Roboto, sans-serif; font-size: 12px; font-weight: 200;" x="0" y="80.1104073878947" dx="0em" dy="0.3em" fill="rgb(33, 33, 33)" stroke="none" stroke-width="1px">0.01</text><text style="text-anchor: end; visibility: inherit; font-family: Roboto, sans-serif; font-size: 12px; font-weight: 200;" x="0" y="70.9276462490423" dx="0em" dy="0.3em" fill="rgb(33, 33, 33)" stroke="none" stroke-width="1px">0.02</text><text style="text-anchor: end; visibility: hidden; font-family: Roboto, sans-serif; font-size: 12px; font-weight: 200;" x="0" y="65.55607532973413" dx="0em" dy="0.3em" fill="rgb(33, 33, 33)" stroke="none" stroke-width="1px">0.03</text><text style="text-anchor: end; visibility: hidden; font-family: Roboto, sans-serif; font-size: 12px; font-weight: 200;" x="0" y="61.74488511018986" dx="0em" dy="0.3em" fill="rgb(33, 33, 33)" stroke="none" stroke-width="1px">0.04</text><text style="text-anchor: end; visibility: hidden; font-family: Roboto, sans-serif; font-size: 12px; font-weight: 200;" x="0" y="58.788696310953384" dx="0em" dy="0.3em" fill="rgb(33, 33, 33)" stroke="none" stroke-width="1px">0.05</text><text style="text-anchor: end; visibility: hidden; font-family: Roboto, sans-serif; font-size: 12px; font-weight: 200;" x="0" y="56.37331419088168" dx="0em" dy="0.3em" fill="rgb(33, 33, 33)" stroke="none" stroke-width="1px">0.06</text><text style="text-anchor: end; visibility: hidden; font-family: Roboto, sans-serif; font-size: 12px; font-weight: 200;" x="0" y="54.33113770665806" dx="0em" dy="0.3em" fill="rgb(33, 33, 33)" stroke="none" stroke-width="1px">0.07</text><text style="text-anchor: end; visibility: hidden; font-family: Roboto, sans-serif; font-size: 12px; font-weight: 200;" x="0" y="52.562123971337435" dx="0em" dy="0.3em" fill="rgb(33, 33, 33)" stroke="none" stroke-width="1px">0.08</text><text style="text-anchor: end; visibility: hidden; font-family: Roboto, sans-serif; font-size: 12px; font-weight: 200;" x="0" y="51.00174327157353" dx="0em" dy="0.3em" fill="rgb(33, 33, 33)" stroke="none" stroke-width="1px">0.09</text><text style="text-anchor: end; visibility: hidden; font-family: Roboto, sans-serif; font-size: 12px; font-weight: 200;" x="0" y="49.605935172100956" dx="0em" dy="0.3em" fill="rgb(33, 33, 33)" stroke="none" stroke-width="1px">0.1</text><text style="text-anchor: end; visibility: inherit; font-family: Roboto, sans-serif; font-size: 12px; font-weight: 200;" x="0" y="40.42317403324853" dx="0em" dy="0.3em" fill="rgb(33, 33, 33)" stroke="none" stroke-width="1px">0.2</text><text style="text-anchor: end; visibility: hidden; font-family: Roboto, sans-serif; font-size: 12px; font-weight: 200;" x="0" y="35.05160311394038" dx="0em" dy="0.3em" fill="rgb(33, 33, 33)" stroke="none" stroke-width="1px">0.3</text><text style="text-anchor: end; visibility: hidden; font-family: Roboto, sans-serif; font-size: 12px; font-weight: 200;" x="0" y="31.2404128943961" dx="0em" dy="0.3em" fill="rgb(33, 33, 33)" stroke="none" stroke-width="1px">0.4</text><text style="text-anchor: end; visibility: hidden; font-family: Roboto, sans-serif; font-size: 12px; font-weight: 200;" x="0" y="28.284224095159644" dx="0em" dy="0.3em" fill="rgb(33, 33, 33)" stroke="none" stroke-width="1px">0.5</text><text style="text-anchor: end; visibility: hidden; font-family: Roboto, sans-serif; font-size: 12px; font-weight: 200;" x="0" y="25.868841975087953" dx="0em" dy="0.3em" fill="rgb(33, 33, 33)" stroke="none" stroke-width="1px">0.6</text><text style="text-anchor: end; visibility: hidden; font-family: Roboto, sans-serif; font-size: 12px; font-weight: 200;" x="0" y="23.82666549086432" dx="0em" dy="0.3em" fill="rgb(33, 33, 33)" stroke="none" stroke-width="1px">0.7</text><text style="text-anchor: end; visibility: hidden; font-family: Roboto, sans-serif; font-size: 12px; font-weight: 200;" x="0" y="22.057651755543674" dx="0em" dy="0.3em" fill="rgb(33, 33, 33)" stroke="none" stroke-width="1px">0.8</text><text style="text-anchor: end; visibility: hidden; font-family: Roboto, sans-serif; font-size: 12px; font-weight: 200;" x="0" y="20.497271055779787" dx="0em" dy="0.3em" fill="rgb(33, 33, 33)" stroke="none" stroke-width="1px">0.9</text><text style="text-anchor: end; visibility: hidden; font-family: Roboto, sans-serif; font-size: 12px; font-weight: 200;" x="0" y="19.101462956307216" dx="0em" dy="0.3em" fill="rgb(33, 33, 33)" stroke="none" stroke-width="1px">1</text><text style="text-anchor: end; visibility: inherit; font-family: Roboto, sans-serif; font-size: 12px; font-weight: 200;" x="0" y="9.918701817454789" dx="0em" dy="0.3em" fill="rgb(33, 33, 33)" stroke="none" stroke-width="1px">2</text><text style="text-anchor: end; visibility: hidden; font-family: Roboto, sans-serif; font-size: 12px; font-weight: 200;" x="0" y="4.54713089814664" dx="0em" dy="0.3em" fill="rgb(33, 33, 33)" stroke="none" stroke-width="1px">3</text><text style="text-anchor: end; visibility: hidden; font-family: Roboto, sans-serif; font-size: 12px; font-weight: 200;" x="0" y="0.7359406786023793" dx="0em" dy="0.3em" fill="rgb(33, 33, 33)" stroke="none" stroke-width="1px">4</text></g><line x1="51.53200149536133" y1="0" x2="51.53200149536133" y2="176.55199909210205" fill="rgb(0, 0, 0)" stroke="rgb(204, 204, 204)" stroke-width="1px"></line></g></g><g transform="translate(51, 0)" clip-path="url(#clip_0)"><clipPath id="clip_0"><rect width="278" height="176"></rect></clipPath><g><g><g><line x1="0" y1="0" x2="0" y2="176.55199909210205" fill="rgb(0, 0, 0)" stroke="rgb(66, 66, 66)" stroke-width="1px" opacity="0.25"></line><line x1="19.890571321759904" y1="0" x2="19.890571321759904" y2="176.55199909210205" fill="rgb(0, 0, 0)" stroke="rgb(66, 66, 66)" stroke-width="1px" opacity="0.25"></line><line x1="39.78114264351981" y1="0" x2="39.78114264351981" y2="176.55199909210205" fill="rgb(0, 0, 0)" stroke="rgb(66, 66, 66)" stroke-width="1px" opacity="0.25"></line><line x1="59.671713965279714" y1="0" x2="59.671713965279714" y2="176.55199909210205" fill="rgb(0, 0, 0)" stroke="rgb(66, 66, 66)" stroke-width="1px" opacity="0.25"></line><line x1="79.56228528703961" y1="0" x2="79.56228528703961" y2="176.55199909210205" fill="rgb(0, 0, 0)" stroke="rgb(66, 66, 66)" stroke-width="1px" opacity="0.25"></line><line x1="99.45285660879952" y1="0" x2="99.45285660879952" y2="176.55199909210205" fill="rgb(0, 0, 0)" stroke="rgb(66, 66, 66)" stroke-width="1px" opacity="0.25"></line><line x1="119.34342793055943" y1="0" x2="119.34342793055943" y2="176.55199909210205" fill="rgb(0, 0, 0)" stroke="rgb(66, 66, 66)" stroke-width="1px" opacity="0.25"></line><line x1="139.23399925231934" y1="0" x2="139.23399925231934" y2="176.55199909210205" fill="rgb(0, 0, 0)" stroke="rgb(66, 66, 66)" stroke-width="1px" opacity="0.25"></line><line x1="159.12457057407923" y1="0" x2="159.12457057407923" y2="176.55199909210205" fill="rgb(0, 0, 0)" stroke="rgb(66, 66, 66)" stroke-width="1px" opacity="0.25"></line><line x1="179.01514189583915" y1="0" x2="179.01514189583915" y2="176.55199909210205" fill="rgb(0, 0, 0)" stroke="rgb(66, 66, 66)" stroke-width="1px" opacity="0.25"></line><line x1="198.90571321759904" y1="0" x2="198.90571321759904" y2="176.55199909210205" fill="rgb(0, 0, 0)" stroke="rgb(66, 66, 66)" stroke-width="1px" opacity="0.25"></line><line x1="218.79628453935896" y1="0" x2="218.79628453935896" y2="176.55199909210205" fill="rgb(0, 0, 0)" stroke="rgb(66, 66, 66)" stroke-width="1px" opacity="0.25"></line><line x1="238.68685586111886" y1="0" x2="238.68685586111886" y2="176.55199909210205" fill="rgb(0, 0, 0)" stroke="rgb(66, 66, 66)" stroke-width="1px" opacity="0.25"></line><line x1="258.57742718287875" y1="0" x2="258.57742718287875" y2="176.55199909210205" fill="rgb(0, 0, 0)" stroke="rgb(66, 66, 66)" stroke-width="1px" opacity="0.25"></line><line x1="278.4679985046387" y1="0" x2="278.4679985046387" y2="176.55199909210205" fill="rgb(0, 0, 0)" stroke="rgb(66, 66, 66)" stroke-width="1px" opacity="0.25"></line></g><g><line x1="0" y1="176.34902656983303" x2="278.4679985046387" y2="176.34902656983303" fill="rgb(0, 0, 0)" stroke="rgb(66, 66, 66)" stroke-width="1px" opacity="0.25"></line><line x1="0" y1="174.58001283451242" x2="278.4679985046387" y2="174.58001283451242" fill="rgb(0, 0, 0)" stroke="rgb(66, 66, 66)" stroke-width="1px" opacity="0.25"></line><line x1="0" y1="173.01963213474852" x2="278.4679985046387" y2="173.01963213474852" fill="rgb(0, 0, 0)" stroke="rgb(66, 66, 66)" stroke-width="1px" opacity="0.25"></line><line x1="0" y1="171.62382403527596" x2="278.4679985046387" y2="171.62382403527596" fill="rgb(0, 0, 0)" stroke="rgb(66, 66, 66)" stroke-width="1px" opacity="0.25"></line><line x1="0" y1="162.44106289642352" x2="278.4679985046387" y2="162.44106289642352" fill="rgb(0, 0, 0)" stroke="rgb(66, 66, 66)" stroke-width="1px" opacity="0.25"></line><line x1="0" y1="157.06949197711532" x2="278.4679985046387" y2="157.06949197711532" fill="rgb(0, 0, 0)" stroke="rgb(66, 66, 66)" stroke-width="1px" opacity="0.25"></line><line x1="0" y1="153.2583017575711" x2="278.4679985046387" y2="153.2583017575711" fill="rgb(0, 0, 0)" stroke="rgb(66, 66, 66)" stroke-width="1px" opacity="0.25"></line><line x1="0" y1="150.30211295833462" x2="278.4679985046387" y2="150.30211295833462" fill="rgb(0, 0, 0)" stroke="rgb(66, 66, 66)" stroke-width="1px" opacity="0.25"></line><line x1="0" y1="147.88673083826293" x2="278.4679985046387" y2="147.88673083826293" fill="rgb(0, 0, 0)" stroke="rgb(66, 66, 66)" stroke-width="1px" opacity="0.25"></line><line x1="0" y1="145.8445543540393" x2="278.4679985046387" y2="145.8445543540393" fill="rgb(0, 0, 0)" stroke="rgb(66, 66, 66)" stroke-width="1px" opacity="0.25"></line><line x1="0" y1="144.07554061871866" x2="278.4679985046387" y2="144.07554061871866" fill="rgb(0, 0, 0)" stroke="rgb(66, 66, 66)" stroke-width="1px" opacity="0.25"></line><line x1="0" y1="142.51515991895477" x2="278.4679985046387" y2="142.51515991895477" fill="rgb(0, 0, 0)" stroke="rgb(66, 66, 66)" stroke-width="1px" opacity="0.25"></line><line x1="0" y1="141.11935181948218" x2="278.4679985046387" y2="141.11935181948218" fill="rgb(0, 0, 0)" stroke="rgb(66, 66, 66)" stroke-width="1px" opacity="0.25"></line><line x1="0" y1="131.9365906806298" x2="278.4679985046387" y2="131.9365906806298" fill="rgb(0, 0, 0)" stroke="rgb(66, 66, 66)" stroke-width="1px" opacity="0.25"></line><line x1="0" y1="126.56501976132161" x2="278.4679985046387" y2="126.56501976132161" fill="rgb(0, 0, 0)" stroke="rgb(66, 66, 66)" stroke-width="1px" opacity="0.25"></line><line x1="0" y1="122.75382954177735" x2="278.4679985046387" y2="122.75382954177735" fill="rgb(0, 0, 0)" stroke="rgb(66, 66, 66)" stroke-width="1px" opacity="0.25"></line><line x1="0" y1="119.79764074254088" x2="278.4679985046387" y2="119.79764074254088" fill="rgb(0, 0, 0)" stroke="rgb(66, 66, 66)" stroke-width="1px" opacity="0.25"></line><line x1="0" y1="117.38225862246918" x2="278.4679985046387" y2="117.38225862246918" fill="rgb(0, 0, 0)" stroke="rgb(66, 66, 66)" stroke-width="1px" opacity="0.25"></line><line x1="0" y1="115.34008213824555" x2="278.4679985046387" y2="115.34008213824555" fill="rgb(0, 0, 0)" stroke="rgb(66, 66, 66)" stroke-width="1px" opacity="0.25"></line><line x1="0" y1="113.57106840292492" x2="278.4679985046387" y2="113.57106840292492" fill="rgb(0, 0, 0)" stroke="rgb(66, 66, 66)" stroke-width="1px" opacity="0.25"></line><line x1="0" y1="112.01068770316101" x2="278.4679985046387" y2="112.01068770316101" fill="rgb(0, 0, 0)" stroke="rgb(66, 66, 66)" stroke-width="1px" opacity="0.25"></line><line x1="0" y1="110.61487960368845" x2="278.4679985046387" y2="110.61487960368845" fill="rgb(0, 0, 0)" stroke="rgb(66, 66, 66)" stroke-width="1px" opacity="0.25"></line><line x1="0" y1="101.43211846483601" x2="278.4679985046387" y2="101.43211846483601" fill="rgb(0, 0, 0)" stroke="rgb(66, 66, 66)" stroke-width="1px" opacity="0.25"></line><line x1="0" y1="96.06054754552787" x2="278.4679985046387" y2="96.06054754552787" fill="rgb(0, 0, 0)" stroke="rgb(66, 66, 66)" stroke-width="1px" opacity="0.25"></line><line x1="0" y1="92.24935732598358" x2="278.4679985046387" y2="92.24935732598358" fill="rgb(0, 0, 0)" stroke="rgb(66, 66, 66)" stroke-width="1px" opacity="0.25"></line><line x1="0" y1="89.29316852674712" x2="278.4679985046387" y2="89.29316852674712" fill="rgb(0, 0, 0)" stroke="rgb(66, 66, 66)" stroke-width="1px" opacity="0.25"></line><line x1="0" y1="86.87778640667544" x2="278.4679985046387" y2="86.87778640667544" fill="rgb(0, 0, 0)" stroke="rgb(66, 66, 66)" stroke-width="1px" opacity="0.25"></line><line x1="0" y1="84.83560992245181" x2="278.4679985046387" y2="84.83560992245181" fill="rgb(0, 0, 0)" stroke="rgb(66, 66, 66)" stroke-width="1px" opacity="0.25"></line><line x1="0" y1="83.06659618713118" x2="278.4679985046387" y2="83.06659618713118" fill="rgb(0, 0, 0)" stroke="rgb(66, 66, 66)" stroke-width="1px" opacity="0.25"></line><line x1="0" y1="81.50621548736727" x2="278.4679985046387" y2="81.50621548736727" fill="rgb(0, 0, 0)" stroke="rgb(66, 66, 66)" stroke-width="1px" opacity="0.25"></line><line x1="0" y1="80.1104073878947" x2="278.4679985046387" y2="80.1104073878947" fill="rgb(0, 0, 0)" stroke="rgb(66, 66, 66)" stroke-width="1px" opacity="0.25"></line><line x1="0" y1="70.9276462490423" x2="278.4679985046387" y2="70.9276462490423" fill="rgb(0, 0, 0)" stroke="rgb(66, 66, 66)" stroke-width="1px" opacity="0.25"></line><line x1="0" y1="65.55607532973413" x2="278.4679985046387" y2="65.55607532973413" fill="rgb(0, 0, 0)" stroke="rgb(66, 66, 66)" stroke-width="1px" opacity="0.25"></line><line x1="0" y1="61.74488511018986" x2="278.4679985046387" y2="61.74488511018986" fill="rgb(0, 0, 0)" stroke="rgb(66, 66, 66)" stroke-width="1px" opacity="0.25"></line><line x1="0" y1="58.788696310953384" x2="278.4679985046387" y2="58.788696310953384" fill="rgb(0, 0, 0)" stroke="rgb(66, 66, 66)" stroke-width="1px" opacity="0.25"></line><line x1="0" y1="56.37331419088168" x2="278.4679985046387" y2="56.37331419088168" fill="rgb(0, 0, 0)" stroke="rgb(66, 66, 66)" stroke-width="1px" opacity="0.25"></line><line x1="0" y1="54.33113770665806" x2="278.4679985046387" y2="54.33113770665806" fill="rgb(0, 0, 0)" stroke="rgb(66, 66, 66)" stroke-width="1px" opacity="0.25"></line><line x1="0" y1="52.562123971337435" x2="278.4679985046387" y2="52.562123971337435" fill="rgb(0, 0, 0)" stroke="rgb(66, 66, 66)" stroke-width="1px" opacity="0.25"></line><line x1="0" y1="51.00174327157353" x2="278.4679985046387" y2="51.00174327157353" fill="rgb(0, 0, 0)" stroke="rgb(66, 66, 66)" stroke-width="1px" opacity="0.25"></line><line x1="0" y1="49.605935172100956" x2="278.4679985046387" y2="49.605935172100956" fill="rgb(0, 0, 0)" stroke="rgb(66, 66, 66)" stroke-width="1px" opacity="0.25"></line><line x1="0" y1="40.42317403324853" x2="278.4679985046387" y2="40.42317403324853" fill="rgb(0, 0, 0)" stroke="rgb(66, 66, 66)" stroke-width="1px" opacity="0.25"></line><line x1="0" y1="35.05160311394038" x2="278.4679985046387" y2="35.05160311394038" fill="rgb(0, 0, 0)" stroke="rgb(66, 66, 66)" stroke-width="1px" opacity="0.25"></line><line x1="0" y1="31.2404128943961" x2="278.4679985046387" y2="31.2404128943961" fill="rgb(0, 0, 0)" stroke="rgb(66, 66, 66)" stroke-width="1px" opacity="0.25"></line><line x1="0" y1="28.284224095159644" x2="278.4679985046387" y2="28.284224095159644" fill="rgb(0, 0, 0)" stroke="rgb(66, 66, 66)" stroke-width="1px" opacity="0.25"></line><line x1="0" y1="25.868841975087953" x2="278.4679985046387" y2="25.868841975087953" fill="rgb(0, 0, 0)" stroke="rgb(66, 66, 66)" stroke-width="1px" opacity="0.25"></line><line x1="0" y1="23.82666549086432" x2="278.4679985046387" y2="23.82666549086432" fill="rgb(0, 0, 0)" stroke="rgb(66, 66, 66)" stroke-width="1px" opacity="0.25"></line><line x1="0" y1="22.057651755543674" x2="278.4679985046387" y2="22.057651755543674" fill="rgb(0, 0, 0)" stroke="rgb(66, 66, 66)" stroke-width="1px" opacity="0.25"></line><line x1="0" y1="20.497271055779787" x2="278.4679985046387" y2="20.497271055779787" fill="rgb(0, 0, 0)" stroke="rgb(66, 66, 66)" stroke-width="1px" opacity="0.25"></line><line x1="0" y1="19.101462956307216" x2="278.4679985046387" y2="19.101462956307216" fill="rgb(0, 0, 0)" stroke="rgb(66, 66, 66)" stroke-width="1px" opacity="0.25"></line><line x1="0" y1="9.918701817454789" x2="278.4679985046387" y2="9.918701817454789" fill="rgb(0, 0, 0)" stroke="rgb(66, 66, 66)" stroke-width="1px" opacity="0.25"></line><line x1="0" y1="4.54713089814664" x2="278.4679985046387" y2="4.54713089814664" fill="rgb(0, 0, 0)" stroke="rgb(66, 66, 66)" stroke-width="1px" opacity="0.25"></line><line x1="0" y1="0.7359406786023793" x2="278.4679985046387" y2="0.7359406786023793" fill="rgb(0, 0, 0)" stroke="rgb(66, 66, 66)" stroke-width="1px" opacity="0.25"></line></g></g></g><g><g><line x1="19.890571321759904" y1="0" x2="19.890571321759904" y2="176.55199909210205" fill="rgb(0, 0, 0)" stroke="rgb(153, 153, 153)" stroke-width="1.5px"></line></g></g><g><g><g><g><g><path style="fill: none;" stroke="rgb(51, 187, 238)" stroke-width="2px" d="M21.879628453935894,33.558648387261435L23.868685586111887,39.774685607741155L25.857742718287877,43.543428127679654L27.846799850463867,46.16415140782832L29.835856982639857,48.43380461861427L31.824914114815847,50.1561773377861L33.81397124699184,51.6082565869735L35.80302837916783,53.05093256788335L37.792085511343814,54.22888808591975L39.78114264351981,55.012115422081195L41.7701997756958,55.844882179686L43.75925690787179,56.78072964065868L45.74831404004778,57.46136894046611L47.737371172223774,57.995148971189096L49.72642830439976,58.49214011648956L51.715485436575754,59.166332343285305L53.70454256875175,59.98100819440334L55.693599700927734,60.23020490038505L57.68265683310373,60.731237266262255L59.671713965279714,61.68835248301968L61.6607710974557,61.94026875487943L63.649828229631694,62.45934220493702L65.63888536180768,62.62235556461869L67.62794249398368,63.34458217440694L69.61699962615967,63.43227552350677L71.60605675833565,63.822281988546585L73.59511389051166,64.1188182168994L75.58417102268763,64.6786203820402L77.57322815486363,65.22933553480564L79.56228528703961,65.89482886583741L81.55134241921562,66.09166693239548L83.5403995513916,66.2253611204811L85.5294566835676,66.70542304188061L87.51851381574357,66.7041818440197L89.50757094791958,67.47469228699323L91.49662808009556,68.49649141680928L93.48568521227155,68.0490039969057L95.47474234444755,68.29777841779995L97.46379947662354,68.5509579763867L99.45285660879952,69.01130829211625L101.44191374097551,69.79249793503541L103.43097087315151,70.05618834718142L105.4200280053275,70.34048508681502L107.4090851375035,70.8519453429778L109.39814226967948,71.40383364520052L111.38719940185547,71.47517271702922L113.37625653403146,72.12977376178057L115.36531366620746,72.80046877536195L117.35437079838344,73.47805162215758L119.34342793055943,73.43041193838098L121.33248506273543,73.8327522540205L123.3215421949114,74.18750442835963L125.3105993270874,74.3432430863957L127.29965645926339,75.82354722569244L129.28871359143938,76.06893341548228L131.27777072361536,76.84251078822855L133.26682785579138,76.52585387210324L135.25588498796736,77.04064842354121L137.24494212014335,76.74546350672944L139.23399925231934,77.5741919989881L141.22305638449532,78.40016215778284L143.2121135166713,78.11933194614316L145.20117064884732,78.6661230799924L147.1902277810233,78.78501964677835L149.1792849131993,79.31915322925443L151.16834204537525,79.92590286854782L153.15739917755127,80.9629951071794L155.14645630972726,82.37459890136839L157.13551344190324,82.3364605061678L159.12457057407923,82.64412239355711L161.11362770625524,82.88771489178882L163.10268483843123,82.89761648324951L165.09174197060722,84.45134576923363L167.0807991027832,84.15554074127272L169.0698562349592,85.61487276290525L171.0589133671352,87.10352313253676L173.0479704993112,87.63189172124586L175.03702763148715,87.59404165971122L177.02608476366314,88.00714190708291L179.01514189583915,88.95559881059907L181.00419902801514,89.1887264841445L182.99325616019112,91.01928650803825L184.9823132923671,91.3192936423196L186.9713704245431,91.45662611234387L188.9604275567191,91.29938065159578L190.9494846888951,93.32504529059528L192.93854182107108,95.04863760203209L194.92759895324707,95.55401162436263L196.91665608542309,96.63748024967198L198.90571321759904,98.77400833483581L200.89477034977503,100.39905019079795L202.88382748195102,101.03925085014995L204.87288461412703,100.95209472922289L206.86194174630302,102.99165996124758L208.850998878479,104.60673179475684L210.840056010655,104.92333687890653L212.82911314283098,109.24336763181971L214.818170275007,113.27583492609202L216.80722740718298,110.00775818526398L218.79628453935896,110.04500754575045L220.78534167153492,112.41739444725661L222.77439880371094,112.67915683715275L224.76345593588692,115.18461938436911L226.7525130680629,118.29648298433861L228.7415702002389,119.71006319736142L230.7306273324149,118.59081918657608L232.7196844645909,121.17686474452472L234.70874159676688,124.17778383039827L236.69779872894287,128.3856723429414L238.68685586111886,131.82468322643322L240.67591299329487,134.86455080233043L242.66497012547086,136.42987264871223L244.65402725764682,136.85308176768686L246.6430843898228,138.47374246441686L248.63214152199882,140.39651695923925L250.6211986541748,141.82228058688133L252.6102557863508,142.8878075788057L254.59931291852678,143.86107504529235L256.58837005070274,145.36104260043453L258.57742718287875,146.78272136128146" fill="none"></path></g><g><path style="fill: none;" stroke="rgb(238, 51, 119)" stroke-width="2px" d="M21.879628453935894,34.53348540646359L23.868685586111887,40.17583554033766L25.857742718287877,43.621468149864036L27.846799850463867,45.90082347238952L29.835856982639857,47.8925682978249L31.824914114815847,49.334588723064655L33.81397124699184,50.67401349612602L35.80302837916783,51.95840118793706L37.792085511343814,52.855228775967205L39.78114264351981,53.558882211802164L41.7701997756958,54.194393451747146L43.75925690787179,54.85339103219995L45.74831404004778,55.416998504986786L47.737371172223774,56.093314239565096L49.72642830439976,56.29225878101206L51.715485436575754,56.81109610298541L53.70454256875175,57.21744400910016L55.693599700927734,57.460608864699445L57.68265683310373,57.9977753911695L59.671713965279714,58.59490961626534L61.6607710974557,58.87711928045724L63.649828229631694,59.450562883928484L65.63888536180768,59.55446976773604L67.62794249398368,60.10892547270196L69.61699962615967,60.36803903095366L71.60605675833565,60.84197778646845L73.59511389051166,61.127613732127664L75.58417102268763,61.39580022513041L77.57322815486363,61.74379475419151L79.56228528703961,62.33742863135241L81.55134241921562,62.33494008243073L83.5403995513916,62.780205713749L85.5294566835676,63.22061012335879L87.51851381574357,63.39514183379764L89.50757094791958,63.343608727385806L91.49662808009556,63.49030443258799L93.48568521227155,63.9375317612519L95.47474234444755,64.49126713144173L97.46379947662354,65.09905563703866L99.45285660879952,65.54048203557485L101.44191374097551,65.51983626661962L103.43097087315151,65.64873013628223L105.4200280053275,65.8084747091684L107.4090851375035,66.42804792117656L109.39814226967948,66.89498991888622L111.38719940185547,67.33094078251028L113.37625653403146,68.04420486449395L115.36531366620746,67.58499980851492L117.35437079838344,68.49134869233335L119.34342793055943,68.4484145300309L121.33248506273543,68.38766066874835L123.3215421949114,69.08453065726846L125.3105993270874,69.24819998444943L127.29965645926339,69.96804528851206L129.28871359143938,70.53807684647629L131.27777072361536,70.36542295508721L133.26682785579138,71.3223375153056L135.25588498796736,71.62480503552761L137.24494212014335,71.66270115921654L139.23399925231934,71.56840929274253L141.22305638449532,72.42144502285879L143.2121135166713,72.70259596424772L145.20117064884732,72.58648051647354L147.1902277810233,72.46060315421431L149.1792849131993,72.84440481275769L151.16834204537525,72.97216382940898L153.15739917755127,73.78533750806687L155.14645630972726,74.79879973639048L157.13551344190324,75.17269954407655L159.12457057407923,75.2985764269916L161.11362770625524,75.5987359406053L163.10268483843123,76.83384511886881L165.09174197060722,76.86154430985265L167.0807991027832,76.36911656832156L169.0698562349592,77.28222284865647L171.0589133671352,78.12581426351358L173.0479704993112,78.66862889584286L175.03702763148715,79.52369712965141L177.02608476366314,79.07453836358216L179.01514189583915,80.10887332536282L181.00419902801514,81.27720953314584L182.99325616019112,81.33366389782165L184.9823132923671,81.57958882667309L186.9713704245431,82.03444040838244L188.9604275567191,82.99198953386916L190.9494846888951,82.94345660386988L192.93854182107108,84.23520309164755L194.92759895324707,85.42434372087885L196.91665608542309,84.92206038940479L198.90571321759904,85.4281887527949L200.89477034977503,86.33097178742455L202.88382748195102,86.95579630748335L204.87288461412703,87.48327752949848L206.86194174630302,87.61597272817384L208.850998878479,87.71964565383995L210.840056010655,88.91873130758827L212.82911314283098,89.99646356333552L214.818170275007,91.46275101976897L216.80722740718298,92.21432800002042L218.79628453935896,93.8606152122727L220.78534167153492,92.8922171009292L222.77439880371094,94.95803839055931L224.76345593588692,96.58220816645063L226.7525130680629,97.2907843783913L228.7415702002389,99.96771608309334L230.7306273324149,101.24425324583757L232.7196844645909,103.20130250403355L234.70874159676688,102.9129071508781L236.69779872894287,104.18902523102366L238.68685586111886,105.2543939467995L240.67591299329487,106.92558725768663L242.66497012547086,108.52556479599967L244.65402725764682,109.05153617227379L246.6430843898228,111.33080621485108L248.63214152199882,113.44277846360094L250.6211986541748,115.36017102506582L252.6102557863508,117.12525784296585L254.59931291852678,119.2748365121694L256.58837005070274,121.38729726710025L258.57742718287875,123.2615011770299" fill="none"></path></g><g><path style="fill: none;" stroke="rgb(51, 187, 238)" stroke-width="2px" d="M21.879628453935894,27.905692457965213L23.868685586111887,34.87497903351356L25.857742718287877,39.23749589407966L27.846799850463867,42.441566008297116L29.835856982639857,45.061450497497646L31.824914114815847,47.185868760847875L33.81397124699184,48.88804171639465L35.80302837916783,50.28726498723431L37.792085511343814,51.48200006510995L39.78114264351981,52.67517018489731L41.7701997756958,53.65793643082062L43.75925690787179,54.590408858712756L45.74831404004778,55.3762116672889L47.737371172223774,55.87648261501994L49.72642830439976,56.765683014310376L51.715485436575754,57.36467552816112L53.70454256875175,57.99449930387144L55.693599700927734,58.431114500201936L57.68265683310373,59.09533449702503L59.671713965279714,59.65828699937077L61.6607710974557,60.238405479382685L63.649828229631694,60.96980017940767L65.63888536180768,61.45225139797499L67.62794249398368,61.81460311414745L69.61699962615967,62.16763248444466L71.60605675833565,62.57364719140108L73.59511389051166,62.908307035648114L75.58417102268763,63.64393789256389L77.57322815486363,64.27788280585165L79.56228528703961,64.41700643058668L81.55134241921562,65.10146386818111L83.5403995513916,65.73612252758545L85.5294566835676,66.23035468701053L87.51851381574357,66.64282246422765L89.50757094791958,67.05103118212998L91.49662808009556,67.35064433627306L93.48568521227155,67.66129041352849L95.47474234444755,68.44108497305201L97.46379947662354,68.9633854898296L99.45285660879952,69.76396961534032L101.44191374097551,69.65122031982065L103.43097087315151,70.83362005767917L105.4200280053275,71.20779462534641L107.4090851375035,71.24108162526657L109.39814226967948,71.7066588201954L111.38719940185547,72.84854120468863L113.37625653403146,72.0390628163572L115.36531366620746,73.42492935185349L117.35437079838344,74.329710125719L119.34342793055943,74.34420641898743L121.33248506273543,75.1364989530914L123.3215421949114,75.88894059435414L125.3105993270874,76.25393940369847L127.29965645926339,77.20733444319129L129.28871359143938,77.0038373993483L131.27777072361536,77.95324420916138L133.26682785579138,78.81290695554947L135.25588498796736,78.69978033700691L137.24494212014335,79.26102831038367L139.23399925231934,79.5167355157506L141.22305638449532,80.54072446300285L143.2121135166713,81.27989957737441L145.20117064884732,82.96842970670363L147.1902277810233,84.38438310930484L149.1792849131993,84.27564721808176L151.16834204537525,83.22668735211606L153.15739917755127,84.21953985830295L155.14645630972726,84.40011069674426L157.13551344190324,86.0464351748338L159.12457057407923,87.69802551338437L161.11362770625524,88.74101108464207L163.10268483843123,89.18190910217002L165.09174197060722,89.16680785869062L167.0807991027832,90.64048497418953L169.0698562349592,91.25424003602978L171.0589133671352,91.45295513895745L173.0479704993112,92.81056388163358L175.03702763148715,93.82760110383319L177.02608476366314,95.23968936474002L179.01514189583915,96.9581818608534L181.00419902801514,94.94416478991101L182.99325616019112,96.89110784711232L184.9823132923671,98.61733388140745L186.9713704245431,98.84809612040713L188.9604275567191,100.32430495391918L190.9494846888951,101.86485610075957L192.93854182107108,103.2415442829381L194.92759895324707,102.42155462471032L196.91665608542309,99.7484267649748L198.90571321759904,102.13522682441028L200.89477034977503,104.28901930954777L202.88382748195102,105.92312058203386L204.87288461412703,107.13576235527336L206.86194174630302,108.04704363913051L208.850998878479,108.65853821190804L210.840056010655,109.324944632614L212.82911314283098,109.97102754280814L214.818170275007,110.34304666748521L216.80722740718298,110.85199876132737L218.79628453935896,111.42799696903094L220.78534167153492,112.09167318366086L222.77439880371094,112.52004280732734L224.76345593588692,113.10409916204065L226.7525130680629,113.56318446460092L228.7415702002389,113.92280698676169L230.7306273324149,114.36445523274692L232.7196844645909,114.78167190018819L234.70874159676688,115.21612501520276L236.69779872894287,115.59313402144697L238.68685586111886,115.89761887677533L240.67591299329487,116.14647943438686L242.66497012547086,116.44377128106109L244.65402725764682,116.67565867854357L246.6430843898228,116.8911773424621L248.63214152199882,117.05870965052134L250.6211986541748,117.21856313736613L252.6102557863508,117.35113558786784L254.59931291852678,117.45319872503381L256.58837005070274,117.55903242720953L258.57742718287875,117.62654783441145" fill="none"></path></g><g><path style="fill: none;" stroke="rgb(0, 119, 187)" stroke-width="2px" d="M21.879628453935894,33.11624309760388L23.868685586111887,39.59369251813865L25.857742718287877,43.49986677634557L27.846799850463867,46.49579278766562L29.835856982639857,48.899008965547665L31.824914114815847,50.85073056005862L33.81397124699184,52.38267760519749L35.80302837916783,53.715585806748436L37.792085511343814,54.97740341921693L39.78114264351981,56.3617911844019L41.7701997756958,57.40510716962655L43.75925690787179,58.24414713218664L45.74831404004778,59.46759066788082L47.737371172223774,59.9995923265608L49.72642830439976,60.77330599452643L51.715485436575754,61.599354319881826L53.70454256875175,62.237096102888L55.693599700927734,63.0968049881325L57.68265683310373,63.6960755231214L59.671713965279714,64.34075806841224L61.6607710974557,64.77746710434658L63.649828229631694,65.57209802503212L65.63888536180768,66.23354640386209L67.62794249398368,66.73477189563171L69.61699962615967,67.43607145419666L71.60605675833565,68.02274161475727L73.59511389051166,68.6282732577433L75.58417102268763,69.48470652631715L77.57322815486363,69.94080049340577L79.56228528703961,69.93011958502787L81.55134241921562,70.8575628590904L83.5403995513916,71.33854214274764L85.5294566835676,71.3304246982253L87.51851381574357,70.73353823819198L89.50757094791958,71.57059267879436L91.49662808009556,72.01851002175809L93.48568521227155,73.28479228675552L95.47474234444755,74.25771760769817L97.46379947662354,74.25125082402569L99.45285660879952,75.33131867044591L101.44191374097551,75.45632375514029L103.43097087315151,75.67242600184953L105.4200280053275,76.76386108164884L107.4090851375035,76.84800044075611L109.39814226967948,77.8586433369825L111.38719940185547,79.09414052115807L113.37625653403146,77.87810766184386L115.36531366620746,77.55043217372487L117.35437079838344,78.88524902734142L119.34342793055943,79.5936656531604L121.33248506273543,81.59575817018519L123.3215421949114,80.9749111150918L125.3105993270874,82.19278223244812L127.29965645926339,82.08089313475347L129.28871359143938,82.85359379277266L131.27777072361536,82.42053647478451L133.26682785579138,84.8226159390509L135.25588498796736,83.7774430786864L137.24494212014335,84.7856416381841L139.23399925231934,85.96057769588616L141.22305638449532,88.20163636137295L143.2121135166713,85.84284017842538L145.20117064884732,87.83547007587657L147.1902277810233,89.59483150834868L149.1792849131993,90.31963791720828L151.16834204537525,89.23566856377599L153.15739917755127,90.10197742438018L155.14645630972726,89.05857523133031L157.13551344190324,90.94740042706265L159.12457057407923,90.62503923613536L161.11362770625524,92.27122194094748L163.10268483843123,93.46283469481997L165.09174197060722,94.21277932613519L167.0807991027832,96.82286592260857L169.0698562349592,96.38633806778913L171.0589133671352,96.87325254439378L173.0479704993112,99.68402118011072L175.03702763148715,98.19983225986708L177.02608476366314,98.9445159361068L179.01514189583915,102.59481693021583L181.00419902801514,102.40321092677995L182.99325616019112,102.43663791729827L184.9823132923671,106.64750523923223L186.9713704245431,104.7292329524364L188.9604275567191,105.7471078341323L190.9494846888951,109.59683031733645L192.93854182107108,111.80861183379851L194.92759895324707,114.26079991227297L196.91665608542309,111.99902473150335L198.90571321759904,113.72119082326583L200.89477034977503,115.1166331642357L202.88382748195102,118.78176037448817L204.87288461412703,121.82923430950203L206.86194174630302,116.47560265934713L208.850998878479,114.59024666212228L210.840056010655,117.19672989764351L212.82911314283098,121.69707718706971L214.818170275007,126.15009075736472L216.80722740718298,130.0426247435122L218.79628453935896,133.35390151798782L220.78534167153492,132.62768251286118L222.77439880371094,134.02858717090376L224.76345593588692,136.54302600364L226.7525130680629,138.2099773599172L228.7415702002389,138.87949108372635L230.7306273324149,140.66194719662204L232.7196844645909,141.17594382817575L234.70874159676688,139.17193771309596L236.69779872894287,141.03581439075845L238.68685586111886,143.05806813661215L240.67591299329487,144.66652907998034L242.66497012547086,146.07702525399733L244.65402725764682,146.93027501144624L246.6430843898228,147.71112431703702L248.63214152199882,147.6851436766833L250.6211986541748,148.46857130766813L252.6102557863508,149.09291397763408L254.59931291852678,149.97279675670885L256.58837005070274,150.58017300832026L258.57742718287875,151.33028493608745" fill="none"></path></g><g><path style="fill: none;" stroke="rgb(0, 153, 136)" stroke-width="2px" d="M21.879628453935894,33.77694709886956L23.868685586111887,39.84229444424939L25.857742718287877,43.53744911143005L27.846799850463867,46.37551797335208L29.835856982639857,48.528685591545994L31.824914114815847,50.35968917749088L33.81397124699184,51.83331251082574L35.80302837916783,53.07605990142718L37.792085511343814,54.28217379735419L39.78114264351981,55.28038336210739L41.7701997756958,56.31600847899577L43.75925690787179,57.28015383680657L45.74831404004778,58.046952771561386L47.737371172223774,58.66910004849569L49.72642830439976,59.18005857478822L51.715485436575754,59.77640506187722L53.70454256875175,60.537701852395536L55.693599700927734,61.24291736198685L57.68265683310373,61.576666498917454L59.671713965279714,62.15556395564755L61.6607710974557,62.613818508773285L63.649828229631694,63.00175060165791L65.63888536180768,63.69268564461007L67.62794249398368,63.99850761184853L69.61699962615967,64.42043740015916L71.60605675833565,64.85166774118476L73.59511389051166,65.44721176561397L75.58417102268763,65.2832871180717L77.57322815486363,65.67835983250013L79.56228528703961,66.16250244782444L81.55134241921562,66.70592795791205L83.5403995513916,67.20031993315436L85.5294566835676,67.62875180032756L87.51851381574357,67.9864330193L89.50757094791958,68.2263296866406L91.49662808009556,68.55595485588306L93.48568521227155,68.77702783321992L95.47474234444755,69.40405301613877L97.46379947662354,69.56260806386281L99.45285660879952,70.38129335286828L101.44191374097551,70.9977441201237L103.43097087315151,71.41738062893792L105.4200280053275,71.64462523065335L107.4090851375035,72.49913467298832L109.39814226967948,72.48159161451368L111.38719940185547,72.59152043334352L113.37625653403146,72.81476062668762L115.36531366620746,73.08070845050206L117.35437079838344,73.50081277805072L119.34342793055943,73.94725043626092L121.33248506273543,74.2505926581538L123.3215421949114,75.60712305304834L125.3105993270874,75.57411371353446L127.29965645926339,76.09449773054534L129.28871359143938,76.58602077656855L131.27777072361536,76.44522618117755L133.26682785579138,77.39559745219378L135.25588498796736,77.36065941848452L137.24494212014335,78.0951859952992L139.23399925231934,78.55241878433566L141.22305638449532,78.89826231473533L143.2121135166713,79.78131765741863L145.20117064884732,79.8443103039896L147.1902277810233,81.26550521911544L149.1792849131993,81.16203530065404L151.16834204537525,81.92613414707552L153.15739917755127,83.35505598495773L155.14645630972726,82.31849319399981L157.13551344190324,82.25930645117671L159.12457057407923,83.92474779863501L161.11362770625524,84.83692835588903L163.10268483843123,84.95326316570362L165.09174197060722,86.13327312410678L167.0807991027832,86.26622079407643L169.0698562349592,85.72744212663702L171.0589133671352,86.62870825712827L173.0479704993112,88.2659569668402L175.03702763148715,88.87192920768776L177.02608476366314,89.89615580873944L179.01514189583915,91.00039283567249L181.00419902801514,92.22346108308152L182.99325616019112,93.41334002334202L184.9823132923671,94.33909265912894L186.9713704245431,94.8114023211005L188.9604275567191,94.8529760473178L190.9494846888951,96.04694543172137L192.93854182107108,98.47143837395109L194.92759895324707,97.76345347339871L196.91665608542309,96.94174487643626L198.90571321759904,98.74002602175784L200.89477034977503,100.97530212905305L202.88382748195102,103.26103807005362L204.87288461412703,103.81827388022181L206.86194174630302,105.22189455649303L208.850998878479,107.27562358707931L210.840056010655,108.05936137344456L212.82911314283098,110.37032440123657L214.818170275007,114.01346127571064L216.80722740718298,117.29007507262371L218.79628453935896,115.1579507075587L220.78534167153492,113.38578629438756L222.77439880371094,112.89938986392553L224.76345593588692,116.6494832900265L226.7525130680629,121.3306858911422L228.7415702002389,123.30556222774203L230.7306273324149,123.6623547136899L232.7196844645909,123.3334987508633L234.70874159676688,124.9965057340252L236.69779872894287,128.9537259120515L238.68685586111886,130.26589561615813L240.67591299329487,133.20675493451458L242.66497012547086,136.33118543970468L244.65402725764682,138.67876193508692L246.6430843898228,140.70879324369696L248.63214152199882,142.26985696257196L250.6211986541748,143.1949846651446L252.6102557863508,143.24718032191106L254.59931291852678,144.36250865991806L256.58837005070274,145.0520336291417L258.57742718287875,146.17631799213592" fill="none"></path></g></g></g></g><g opacity="0.2"><g><g><g><path style="fill: none;" stroke="rgb(51, 187, 238)" stroke-width="2px" d="M21.879628453935894,33.558648387261435L23.868685586111887,45.67127621928781L25.857742718287877,48.57312088668055L27.846799850463867,50.10391765368109L29.835856982639857,52.139088196258L31.824914114815847,52.98163677219407L33.81397124699184,54.00754916496189L35.80302837916783,55.48342743600744L37.792085511343814,56.18300747214918L39.78114264351981,56.2678613244139L41.7701997756958,57.19262069937578L43.75925690787179,58.315567076223225L45.74831404004778,58.55027938158258L47.737371172223774,58.837310417825705L49.72642830439976,59.27380465990321L51.715485436575754,60.24614228866748L53.70454256875175,61.30503513768821L55.693599700927734,60.612949893652285L57.68265683310373,61.520129822857164L59.671713965279714,63.2675604757877L61.6607710974557,62.32734493492003L63.649828229631694,63.278182089191326L65.63888536180768,62.87069611550978L67.62794249398368,64.50757309343966L69.61699962615967,63.56491301147212L71.60605675833565,64.42970090282687L73.59511389051166,64.57645125409366L75.58417102268763,65.5653406584639L77.57322815486363,66.10086701086128L79.56228528703961,66.9602847898934L81.55134241921562,66.39251870165566L83.5403995513916,66.42846668273624L85.5294566835676,67.4597980202722L87.51851381574357,66.70232026532963L89.50757094791958,68.72161192718035L91.49662808009556,70.19411537187574L93.48568521227155,67.4048976183326L95.47474234444755,68.67992479966223L97.46379947662354,68.9400373317633L99.45285660879952,69.73329216445917L101.44191374097551,71.05809201022322L103.43097087315151,70.46183408425381L105.4200280053275,70.7787074232013L107.4090851375035,71.65818005823719L109.39814226967948,72.27732506104991L111.38719940185547,71.58290682924078L113.37625653403146,73.17663188954806L115.36531366620746,73.87482142633478L117.35437079838344,74.564198959247L119.34342793055943,73.35927209227265L121.33248506273543,74.46014473388819L123.3215421949114,74.73810636985277L125.3105993270874,74.58033860889304L127.29965645926339,78.409555579289L129.28871359143938,76.44575130794716L131.27777072361536,78.0947892806704L133.26682785579138,76.0646231212655L135.25588498796736,77.85240947558147L137.24494212014335,76.31466357639653L139.23399925231934,78.92342093595065L141.22305638449532,79.74451568779695L143.2121135166713,77.70894262945278L145.20117064884732,79.53110460279508L147.1902277810233,78.96538950513693L149.1792849131993,80.1630402858684L151.16834204537525,80.8915439269539L153.15739917755127,82.68883203895484L155.14645630972726,84.82162902371594L157.13551344190324,82.27945798949229L159.12457057407923,83.1194415273972L161.11362770625524,83.26171335921752L163.10268483843123,82.91248276025694L165.09174197060722,87.18833247082169L167.0807991027832,83.72386029563374L169.0698562349592,88.1582238888881L171.0589133671352,89.7065648245453L173.0479704993112,88.46618890623483L175.03702763148715,87.5374685602603L177.02608476366314,88.65199743869479L179.01514189583915,90.51919545952188L181.00419902801514,89.54629530252018L182.99325616019112,94.34946670540323L184.9823132923671,91.78244068488759L186.9713704245431,91.66533159860202L188.9604275567191,91.06695755476672L190.9494846888951,97.097787716326L192.93854182107108,98.14497016454716L194.92759895324707,96.35016840101869L196.91665608542309,98.44944313359447L198.90571321759904,102.80800120143331L200.89477034977503,103.28515391952237L202.88382748195102,102.06158422294348L204.87288461412703,100.82242630837007L206.86194174630302,106.79675925984041L208.850998878479,107.47183817282352L210.840056010655,105.41290000863437L212.82911314283098,120.68282700115005L214.818170275007,123.38262635708897L216.80722740718298,106.25045475129143L218.79628453935896,110.10107870295333L220.78534167153492,117.03267435743138L222.77439880371094,113.08176124083495L224.76345593588692,120.14430962520271L226.7525130680629,125.00136610098328L228.7415702002389,122.16106122881324L230.7306273324149,117.07146892433683L232.7196844645909,126.35128580833428L234.70874159676688,130.5394603963266L236.69779872894287,139.28588962855446L238.68685586111886,139.615228941338L240.67591299329487,141.34537827046887L242.66497012547086,139.1909314375589L244.65402725764682,137.51437765012238L246.6430843898228,141.3506132137023L248.63214152199882,143.9332176645507L250.6211986541748,144.2977777340173L252.6102557863508,144.66634868717435L254.59931291852678,145.46977662864367L256.58837005070274,147.98723310697798L258.57742718287875,149.2499968605338" fill="none"></path></g><g><path style="fill: none;" stroke="rgb(238, 51, 119)" stroke-width="2px" d="M21.879628453935894,34.53348540646359L23.868685586111887,45.25751850113253L25.857742718287877,48.06880723948528L27.846799850463867,49.20574732883946L29.835856982639857,51.045830652794216L31.824914114815847,51.62987170792991L33.81397124699184,52.86048867137764L35.80302837916783,54.0870431372905L37.792085511343814,54.29962630606012L39.78114264351981,54.67793122916774L41.7701997756958,55.20238313248402L43.75925690787179,55.903770185413926L45.74831404004778,56.30807773397635L47.737371172223774,57.17581533356797L49.72642830439976,56.59615087106489L51.715485436575754,57.629165734321816L53.70454256875175,57.85115316885996L55.693599700927734,57.83387119402897L57.68265683310373,58.84662307203012L59.671713965279714,59.544265801658135L61.6607710974557,59.31202003158931L63.649828229631694,60.360117834827555L65.63888536180768,59.71187224160919L67.62794249398368,60.986699398507305L69.61699962615967,60.76646501249556L71.60605675833565,61.586275090481976L73.59511389051166,61.567956990701994L75.58417102268763,61.80854225257127L77.57322815486363,62.283550160412254L79.56228528703961,63.28094585232016L81.55134241921562,62.33120813614131L83.5403995513916,63.47748734742273L85.5294566835676,63.90994701602446L87.51851381574357,63.66132785212061L89.50757094791958,63.26668299160884L91.49662808009556,63.71343940590081L93.48568521227155,64.63802169463075L95.47474234444755,65.36784444221392L97.46379947662354,66.06645155362163L99.45285660879952,66.23148859989357L101.44191374097551,65.48892781569418L103.43097087315151,65.84445323989553L105.4200280053275,66.05176233277449L107.4090851375035,67.41537661331034L109.39814226967948,67.62779142533527L111.38719940185547,68.01300595903527L113.37625653403146,69.19171997369783L115.36531366620746,66.92472418958404L117.35437079838344,69.97893548249296L119.34342793055943,68.3842730557827L121.33248506273543,68.29704910160976L123.3215421949114,70.20379390774552L125.3105993270874,69.4975588818277L127.29965645926339,71.12692861113771L129.28871359143938,71.44193012288669L131.27777072361536,70.11058914910616L133.26682785579138,72.90128322651947L135.25588498796736,72.09186243770147L137.24494212014335,71.71974937908419L139.23399925231934,71.4282180260922L141.22305638449532,73.81375928198575L143.2121135166713,73.13583663512166L145.20117064884732,72.41419356951073L147.1902277810233,72.27400167442771L149.1792849131993,73.44179664398114L151.16834204537525,73.16614261663692L153.15739917755127,75.10710970418452L155.14645630972726,76.48108263509619L157.13551344190324,75.75411239829567L159.12457057407923,75.4896631314544L161.11362770625524,76.06212510925381L163.10268483843123,78.93356165368358L165.09174197060722,76.90320198942965L167.0807991027832,75.66318114731426L169.0698562349592,78.78196194742885L171.0589133671352,79.50136214152403L173.0479704993112,79.52697758121782L175.03702763148715,80.9196240095129L177.02608476366314,78.42812359629373L179.01514189583915,81.82961674307123L181.00419902801514,83.24904019083068L182.99325616019112,81.41879909864151L184.9823132923671,81.95725373117384L186.9713704245431,82.7474111557155L188.9604275567191,84.57208797515555L190.9494846888951,82.8709889591733L192.93854182107108,86.44488253699377L194.92759895324707,87.43581849978625L196.91665608542309,84.20263203631536L198.90571321759904,86.22559394370407L200.89477034977503,87.81215284259439L202.88382748195102,87.9520225050457L204.87288461412703,88.31609959678234L206.86194174630302,87.81754139647391L208.850998878479,87.87669229178472L210.840056010655,90.94922101071757L212.82911314283098,91.79772660858649L214.818170275007,94.0202267837004L216.80722740718298,93.42824072521233L218.79628453935896,96.79162698791174L220.78534167153492,91.5606581477918L222.77439880371094,98.82456449342934L224.76345593588692,99.46647329237125L226.7525130680629,98.43021118093445L228.7415702002389,105.39018943445008L230.7306273324149,103.42426733206663L232.7196844645909,106.81596428540158L234.70874159676688,102.49175446409878L236.69779872894287,106.36822332961877L238.68685586111886,107.0326407934417L240.67591299329487,109.90953196827388L242.66497012547086,111.35897501575327L244.65402725764682,109.88184894567351L246.6430843898228,115.71229569681054L248.63214152199882,117.41826985656837L250.6211986541748,118.88468984195667L252.6102557863508,120.31159065130429L254.59931291852678,123.34007071607711L256.58837005070274,125.36394890066394L258.57742718287875,126.68884454085577" fill="none"></path></g><g><path style="fill: none;" stroke="rgb(51, 187, 238)" stroke-width="2px" d="M21.879628453935894,27.905692457965213L23.868685586111887,41.98586319347695L25.857742718287877,45.451198188276194L27.846799850463867,47.58520534163635L29.835856982639857,49.51489432835694L31.824914114815847,50.832228464950234L33.81397124699184,51.779195477042414L35.80302837916783,52.63528722151979L37.792085511343814,53.46752316550152L39.78114264351981,54.67238135785527L41.7701997756958,55.27351299304835L43.75925690787179,56.11917012186362L45.74831404004778,56.64697561846539L47.737371172223774,56.663138922396755L49.72642830439976,58.22130143049796L51.715485436575754,58.316760510250916L53.70454256875175,58.998910320787495L55.693599700927734,59.11414532704037L57.68265683310373,60.15850207939946L59.671713965279714,60.55022436469329L61.6607710974557,61.15915205164977L63.649828229631694,62.148643844144246L65.63888536180768,62.210551055050445L67.62794249398368,62.37741521571845L69.61699962615967,62.71546526120062L71.60605675833565,63.20699707339236L73.59511389051166,63.426701566094486L75.58417102268763,64.8301503678339L77.57322815486363,65.28958402468845L79.56228528703961,64.62847014638714L81.55134241921562,66.19939956636291L83.5403995513916,66.74903656414841L85.5294566835676,67.00809386835327L87.51851381574357,67.28665045429172L89.50757094791958,67.68794327478372L91.49662808009556,67.81316538182563L93.48568521227155,68.1413597459743L95.47474234444755,69.70423715032629L97.46379947662354,69.78760063501052L99.45285660879952,71.06358434893637L101.44191374097551,69.48387541885255L103.43097087315151,72.83222982747957L105.4200280053275,71.78965044858683L107.4090851375035,71.2911694729241L109.39814226967948,72.43721937677711L111.38719940185547,74.77022253492532L113.37625653403146,70.91064816296856L115.36531366620746,75.82045069709422L117.35437079838344,75.81447935005353L119.34342793055943,74.36598064416107L121.33248506273543,76.42155227951493L123.3215421949114,77.10435787709895L125.3105993270874,76.82101499657998L127.29965645926339,78.77988953261342L129.28871359143938,76.70433541234253L131.27777072361536,79.5185633855905L133.26682785579138,80.21700590874418L135.25588498796736,78.53188131147685L137.24494212014335,80.15016880103798L139.23399925231934,79.90979565926536L141.22305638449532,82.24238257583123L143.2121135166713,82.4722619399244L145.20117064884732,85.98940467907936L147.1902277810233,86.84014797037533L149.1792849131993,84.1141986842039L151.16834204537525,81.79423837176869L153.15739917755127,85.864015262191L155.14645630972726,84.67566729151372L157.13551344190324,88.97752591961527L159.12457057407923,90.64028198789269L161.11362770625524,90.47774489153878L163.10268483843123,89.87205241296647L165.09174197060722,89.14418822043605L167.0807991027832,93.21299182773693L169.0698562349592,92.23172188582078L171.0589133671352,91.75673084473594L173.0479704993112,95.14987614317405L175.03702763148715,95.51645914334262L177.02608476366314,97.68769195017674L179.01514189583915,100.04351451765014L181.00419902801514,92.40188190839623L182.99325616019112,100.48271342225709L184.9823132923671,101.71935241770801L186.9713704245431,99.2019558529432L188.9604275567191,102.90196735637315L190.9494846888951,104.57455675509551L192.93854182107108,105.61876915364084L194.92759895324707,101.27953107439336L196.91665608542309,96.53941126260645L198.90571321759904,106.7872145427975L200.89477034977503,108.3643631622995L202.88382748195102,108.82834652201691L204.87288461412703,109.19223850710425L206.86194174630302,109.54349900641131L208.850998878479,109.63219746911156L210.840056010655,110.39196191682133L212.82911314283098,111.00337005159967L214.818170275007,110.92142812007404L216.80722740718298,111.65407882660425L218.79628453935896,112.34185947537594L220.78534167153492,113.15402397422415L222.77439880371094,113.18974408460056L224.76345593588692,114.03149862790056L226.7525130680629,114.2830939460601L228.7415702002389,114.4812349081691L230.7306273324149,115.05582427424997L232.7196844645909,115.43321810891793L234.70874159676688,115.89574610591804L236.69779872894287,116.17956094111375L238.68685586111886,116.36788388905718L240.67591299329487,116.5287613270132L242.66497012547086,116.9026050235877L244.65402725764682,117.03128248767675L246.6430843898228,117.2211753297404L248.63214152199882,117.31404873922693L250.6211986541748,117.46201918028304L252.6102557863508,117.55251543135836L254.59931291852678,117.60778306696052L256.58837005070274,117.71938533006474L258.57742718287875,117.72847050992652" fill="none"></path></g><g><path style="fill: none;" stroke="rgb(0, 119, 187)" stroke-width="2px" d="M21.879628453935894,33.11624309760388L23.868685586111887,45.89152500671931L25.857742718287877,48.789756231657165L27.846799850463867,51.191048982165384L29.835856982639857,52.882332695392996L31.824914114815847,54.13516094670463L33.81397124699184,54.936069867508245L35.80302837916783,55.93624620171503L37.792085511343814,57.089626007337685L39.78114264351981,58.72796236314734L41.7701997756958,59.131232071346936L43.75925690787179,59.606401464629805L45.74831404004778,61.53993437592L47.737371172223774,60.838798654525704L49.72642830439976,62.02479333277576L51.715485436575754,62.94318063777247L53.70454256875175,63.254950496134384L55.693599700927734,64.50073531473389L57.68265683310373,64.64899337241924L59.671713965279714,65.37065138593464L61.6607710974557,65.46074413592058L63.649828229631694,66.86122570185424L65.63888536180768,67.29207678189192L67.62794249398368,67.5240599139375L69.61699962615967,68.56295320397247L71.60605675833565,68.95453403706665L73.59511389051166,69.59185563254213L75.58417102268763,70.88305900652882L77.57322815486363,70.65580635453598L79.56228528703961,69.91411435719978L81.55134241921562,72.38314240005734L83.5403995513916,72.09442764444435L85.5294566835676,71.3182578507264L87.51851381574357,69.88579067644463L89.50757094791958,72.93455490379039L91.49662808009556,72.72012871565003L93.48568521227155,75.44486105283981L95.47474234444755,75.8657955481277L97.46379947662354,74.24155656345512L99.45285660879952,77.13693660052348L101.44191374097551,75.64607120914411L103.43097087315151,76.0033362127097L105.4200280053275,78.59070554616055L107.4090851375035,76.97522000750044L109.39814226967948,79.53574446129618L111.38719940185547,81.19460569181106L113.37625653403146,76.24075337233211L115.36531366620746,77.07363173251673L117.35437079838344,81.17948462732241L119.34342793055943,80.7328172479547L121.33248506273543,85.31388810357961L123.3215421949114,80.09500389953537L125.3105993270874,84.25930355490487L127.29965645926339,81.91481163782423L129.28871359143938,84.10434006269222L131.27777072361536,81.7963891273989L133.26682785579138,89.51367285455066L135.25588498796736,82.3497058323942L137.24494212014335,86.45825274084784L139.23399925231934,87.94496519765053L141.22305638449532,92.48883600508196L143.2121135166713,82.94348004932357L145.20117064884732,91.53176716009852L147.1902277810233,92.76869290726744L149.1792849131993,91.48710110049386L151.16834204537525,87.75980399056154L153.15739917755127,91.51791150095973L155.14645630972726,87.6330420594188L157.13551344190324,94.4075268503591L159.12457057407923,90.15574421195868L161.11362770625524,95.20201226107132L163.10268483843123,95.47903230444172L165.09174197060722,95.42385240798627L167.0807991027832,102.06228615390692L169.0698562349592,95.75738570366896L171.0589133671352,97.63891796522475L173.0479704993112,105.48367204820454L175.03702763148715,96.24527206481702L177.02608476366314,100.14644354969973L179.01514189583915,111.15287630492959L181.00419902801514,102.12089983239044L182.99325616019112,102.4869370793675L184.9823132923671,117.56170831895317L186.9713704245431,102.28953702244104L188.9604275567191,107.43750722851671L190.9494846888951,118.93485111711739L192.93854182107108,116.02420112249304L194.92759895324707,119.0811185705135L196.91665608542309,109.19824482598571L198.90571321759904,116.81444579399329L200.89477034977503,117.53128379759497L202.88382748195102,127.39585976940907L204.87288461412703,128.3334978604283L206.86194174630302,111.11600476254276L208.850998878479,112.18617634393678L210.840056010655,122.42637994004441L212.82911314283098,134.06296354448835L214.818170275007,138.26520481543304L216.80722740718298,139.55584949270977L218.79628453935896,140.70668410042504L220.78534167153492,131.6079459094872L222.77439880371094,136.45416829392278L224.76345593588692,141.52639977372255L226.7525130680629,141.18488464549975L228.7415702002389,139.95182257099134L230.7306273324149,143.88622004079593L232.7196844645909,141.98638205326264L234.70874159676688,136.6403095150785L236.69779872894287,144.4400731073221L238.68685586111886,146.82288815007584L240.67591299329487,147.5177396242598L242.66497012547086,148.52183246796034L244.65402725764682,148.3229696153705L246.6430843898228,148.97612261756024L248.63214152199882,147.64626800001022L250.6211986541748,149.7380841364885L252.6102557863508,150.0883233608985L254.59931291852678,151.4129540969258L256.58837005070274,151.54687250135913L258.57742718287875,152.54164900369943" fill="none"></path></g><g><path style="fill: none;" stroke="rgb(0, 153, 136)" stroke-width="2px" d="M21.879628453935894,33.77694709886956L23.868685586111887,45.51645480468664L25.857742718287877,48.43097579491204L27.846799850463867,50.74503535829654L29.835856982639857,51.99836780226535L31.824914114815847,53.399569693510614L33.81397124699184,54.27390554663773L35.80302837916783,55.12650383649704L37.792085511343814,56.289058019679956L39.78114264351981,56.9169248827138L41.7701997756958,58.02801245568283L43.75925690787179,58.866107951560636L45.74831404004778,59.28456160924024L47.737371172223774,59.659444040440995L49.72642830439976,59.984811320007736L51.715485436575754,60.72403130207282L53.70454256875175,61.768179213951626L55.693599700927734,62.376350175553746L57.68265683310373,62.09355160578793L59.671713965279714,63.07423642707314L61.6607710974557,63.33233899927036L63.649828229631694,63.60580354243523L65.63888536180768,64.80172944285262L67.62794249398368,64.47089556278968L69.61699962615967,65.07964764574214L71.60605675833565,65.5260302788398L73.59511389051166,66.39394602224033L75.58417102268763,65.04114190320931L77.57322815486363,66.2939778447322L79.56228528703961,66.92359875420264L81.55134241921562,67.56529505088726L83.5403995513916,67.97832295764364L85.5294566835676,68.29855445727055L87.51851381574357,68.5417406070761L89.50757094791958,68.59452192300198L91.49662808009556,69.0662999591863L93.48568521227155,69.11571218499377L95.47474234444755,70.4040107070348L97.46379947662354,69.80405649293746L99.45285660879952,71.71278422765522L101.44191374097551,71.97978682795554L103.43097087315151,72.07286250641553L105.4200280053275,71.99297232570143L107.4090851375035,73.89406818963798L109.39814226967948,72.45532050766207L111.38719940185547,72.75814313457533L113.37625653403146,73.15683681594878L115.36531366620746,73.48991656298746L117.35437079838344,74.15705574186599L119.34342793055943,74.64644877837391L121.33248506273543,74.71904070114226L123.3215421949114,77.94429740100432L125.3105993270874,75.52475340897176L127.29965645926339,76.91553118753734L129.28871359143938,77.35928805452393L131.27777072361536,76.23680074034867L133.26682785579138,78.9626659050615L135.25588498796736,77.30842452562507L137.24494212014335,79.27948494215555L139.23399925231934,79.26929142235267L141.22305638449532,79.43456867242782L143.2121135166713,81.22714655457439L145.20117064884732,79.9393644672547L147.1902277810233,83.73180738349765L149.1792849131993,81.00833006333532L151.16834204537525,83.16186190852639L153.15739917755127,85.83691492859101L155.14645630972726,80.90147972227979L157.13551344190324,82.17101919802786L159.12457057407923,86.89644021677685L161.11362770625524,86.33500163509379L163.10268483843123,85.12970355962692L165.09174197060722,88.12732656397087L167.0807991027832,86.46817785559128L169.0698562349592,84.95825559500281L171.0589133671352,88.10716578841901L173.0479704993112,91.17783590726894L175.03702763148715,89.8362573199886L177.02608476366314,91.59825184629703L179.01514189583915,92.85120560033488L181.00419902801514,94.29997718137429L182.99325616019112,95.42622502805351L184.9823132923671,95.86162129605175L186.9713704245431,95.55302323141218L188.9604275567191,94.91558228457086L190.9494846888951,98.06764761725931L192.93854182107108,103.22009754841298L194.92759895324707,96.76772907723421L196.91665608542309,95.79749817916556L198.90571321759904,101.99900410130039L200.89477034977503,105.2483146670151L202.88382748195102,107.65857635681749L204.87288461412703,104.70070254288181L206.86194174630302,107.6529156654798L208.850998878479,111.11380898996399L210.840056010655,109.32941743285994L212.82911314283098,114.83073997002323L214.818170275007,122.54454885092419L216.80722740718298,124.52722449602679L218.79628453935896,112.49120865009402L220.78534167153492,111.10564570208373L222.77439880371094,112.20172343441831L224.76345593588692,125.59063652879429L226.7525130680629,134.71003141678298L228.7415702002389,126.9610357117206L230.7306273324149,124.21623424283523L232.7196844645909,122.8550321028768L234.70874159676688,127.96301770922368L236.69779872894287,138.73725638463532L238.68685586111886,132.5155685775711L240.67591299329487,139.387444973595L242.66497012547086,143.07569529418853L244.65402725764682,143.23118420698165L246.6430843898228,144.49168794504848L248.63214152199882,145.0220661682522L250.6211986541748,144.7163856999333L252.6102557863508,143.32586143124425L254.59931291852678,146.23414090265678L256.58837005070274,146.15867007523514L258.57742718287875,148.06479823144107" fill="none"></path></g></g></g></g></g></g><g transform="translate(51, 176)" clip-path="url(#clip_1)"><clipPath id="clip_1"><rect width="278" height="23"></rect></clipPath><g><g><line x1="0" y1="0" x2="0" y2="5" style="visibility: inherit;" fill="rgb(0, 0, 0)" stroke="rgb(204, 204, 204)" stroke-width="1px"></line><line x1="19.890571321759904" y1="0" x2="19.890571321759904" y2="5" style="visibility: inherit;" fill="rgb(0, 0, 0)" stroke="rgb(204, 204, 204)" stroke-width="1px"></line><line x1="39.78114264351981" y1="0" x2="39.78114264351981" y2="5" style="visibility: inherit;" fill="rgb(0, 0, 0)" stroke="rgb(204, 204, 204)" stroke-width="1px"></line><line x1="59.671713965279714" y1="0" x2="59.671713965279714" y2="5" style="visibility: inherit;" fill="rgb(0, 0, 0)" stroke="rgb(204, 204, 204)" stroke-width="1px"></line><line x1="79.56228528703961" y1="0" x2="79.56228528703961" y2="5" style="visibility: inherit;" fill="rgb(0, 0, 0)" stroke="rgb(204, 204, 204)" stroke-width="1px"></line><line x1="99.45285660879952" y1="0" x2="99.45285660879952" y2="5" style="visibility: inherit;" fill="rgb(0, 0, 0)" stroke="rgb(204, 204, 204)" stroke-width="1px"></line><line x1="119.34342793055943" y1="0" x2="119.34342793055943" y2="5" style="visibility: inherit;" fill="rgb(0, 0, 0)" stroke="rgb(204, 204, 204)" stroke-width="1px"></line><line x1="139.23399925231934" y1="0" x2="139.23399925231934" y2="5" style="visibility: inherit;" fill="rgb(0, 0, 0)" stroke="rgb(204, 204, 204)" stroke-width="1px"></line><line x1="159.12457057407923" y1="0" x2="159.12457057407923" y2="5" style="visibility: inherit;" fill="rgb(0, 0, 0)" stroke="rgb(204, 204, 204)" stroke-width="1px"></line><line x1="179.01514189583915" y1="0" x2="179.01514189583915" y2="5" style="visibility: inherit;" fill="rgb(0, 0, 0)" stroke="rgb(204, 204, 204)" stroke-width="1px"></line><line x1="198.90571321759904" y1="0" x2="198.90571321759904" y2="5" style="visibility: inherit;" fill="rgb(0, 0, 0)" stroke="rgb(204, 204, 204)" stroke-width="1px"></line><line x1="218.79628453935896" y1="0" x2="218.79628453935896" y2="5" style="visibility: inherit;" fill="rgb(0, 0, 0)" stroke="rgb(204, 204, 204)" stroke-width="1px"></line><line x1="238.68685586111886" y1="0" x2="238.68685586111886" y2="5" style="visibility: inherit;" fill="rgb(0, 0, 0)" stroke="rgb(204, 204, 204)" stroke-width="1px"></line><line x1="258.57742718287875" y1="0" x2="258.57742718287875" y2="5" style="visibility: inherit;" fill="rgb(0, 0, 0)" stroke="rgb(204, 204, 204)" stroke-width="1px"></line><line x1="278.4679985046387" y1="0" x2="278.4679985046387" y2="5" style="visibility: inherit;" fill="rgb(0, 0, 0)" stroke="rgb(204, 204, 204)" stroke-width="1px"></line></g><g transform="translate(0, 8)"><text style="text-anchor: middle; visibility: hidden; font-family: Roboto, sans-serif; font-size: 12px; font-weight: 200;" x="0" y="0" dx="0em" dy="0.95em" fill="rgb(33, 33, 33)" stroke="none" stroke-width="1px">-10</text><text style="text-anchor: middle; visibility: inherit; font-family: Roboto, sans-serif; font-size: 12px; font-weight: 200;" x="19.890571321759904" y="0" dx="0em" dy="0.95em" fill="rgb(33, 33, 33)" stroke="none" stroke-width="1px">0</text><text style="text-anchor: middle; visibility: hidden; font-family: Roboto, sans-serif; font-size: 12px; font-weight: 200;" x="39.78114264351981" y="0" dx="0em" dy="0.95em" fill="rgb(33, 33, 33)" stroke="none" stroke-width="1px">10</text><text style="text-anchor: middle; visibility: inherit; font-family: Roboto, sans-serif; font-size: 12px; font-weight: 200;" x="59.671713965279714" y="0" dx="0em" dy="0.95em" fill="rgb(33, 33, 33)" stroke="none" stroke-width="1px">20</text><text style="text-anchor: middle; visibility: hidden; font-family: Roboto, sans-serif; font-size: 12px; font-weight: 200;" x="79.56228528703961" y="0" dx="0em" dy="0.95em" fill="rgb(33, 33, 33)" stroke="none" stroke-width="1px">30</text><text style="text-anchor: middle; visibility: inherit; font-family: Roboto, sans-serif; font-size: 12px; font-weight: 200;" x="99.45285660879952" y="0" dx="0em" dy="0.95em" fill="rgb(33, 33, 33)" stroke="none" stroke-width="1px">40</text><text style="text-anchor: middle; visibility: hidden; font-family: Roboto, sans-serif; font-size: 12px; font-weight: 200;" x="119.34342793055943" y="0" dx="0em" dy="0.95em" fill="rgb(33, 33, 33)" stroke="none" stroke-width="1px">50</text><text style="text-anchor: middle; visibility: inherit; font-family: Roboto, sans-serif; font-size: 12px; font-weight: 200;" x="139.23399925231934" y="0" dx="0em" dy="0.95em" fill="rgb(33, 33, 33)" stroke="none" stroke-width="1px">60</text><text style="text-anchor: middle; visibility: hidden; font-family: Roboto, sans-serif; font-size: 12px; font-weight: 200;" x="159.12457057407923" y="0" dx="0em" dy="0.95em" fill="rgb(33, 33, 33)" stroke="none" stroke-width="1px">70</text><text style="text-anchor: middle; visibility: inherit; font-family: Roboto, sans-serif; font-size: 12px; font-weight: 200;" x="179.01514189583915" y="0" dx="0em" dy="0.95em" fill="rgb(33, 33, 33)" stroke="none" stroke-width="1px">80</text><text style="text-anchor: middle; visibility: hidden; font-family: Roboto, sans-serif; font-size: 12px; font-weight: 200;" x="198.90571321759904" y="0" dx="0em" dy="0.95em" fill="rgb(33, 33, 33)" stroke="none" stroke-width="1px">90</text><text style="text-anchor: middle; visibility: inherit; font-family: Roboto, sans-serif; font-size: 12px; font-weight: 200;" x="218.79628453935896" y="0" dx="0em" dy="0.95em" fill="rgb(33, 33, 33)" stroke="none" stroke-width="1px">100</text><text style="text-anchor: middle; visibility: hidden; font-family: Roboto, sans-serif; font-size: 12px; font-weight: 200;" x="238.68685586111886" y="0" dx="0em" dy="0.95em" fill="rgb(33, 33, 33)" stroke="none" stroke-width="1px">110</text><text style="text-anchor: middle; visibility: inherit; font-family: Roboto, sans-serif; font-size: 12px; font-weight: 200;" x="258.57742718287875" y="0" dx="0em" dy="0.95em" fill="rgb(33, 33, 33)" stroke="none" stroke-width="1px">120</text><text style="text-anchor: middle; visibility: hidden; font-family: Roboto, sans-serif; font-size: 12px; font-weight: 200;" x="278.4679985046387" y="0" dx="0em" dy="0.95em" fill="rgb(33, 33, 33)" stroke="none" stroke-width="1px">130</text></g><line x1="0" y1="0" x2="278.4679985046387" y2="0" fill="rgb(0, 0, 0)" stroke="rgb(204, 204, 204)" stroke-width="1px"></line></g></g></g></g></svg>