<svg viewBox="0 0 330 200" xmlns="http://www.w3.org/2000/svg"><rect width="100%" height="100%" fill="white"/><g><g><g><g><g><line x1="51.53200149536133" y1="170.08816795460757" x2="46.53200149536133" y2="170.08816795460757" style="visibility: inherit;" fill="rgb(0, 0, 0)" stroke="rgb(204, 204, 204)" stroke-width="1px"></line><line x1="51.53200149536133" y1="157.06779484121398" x2="46.53200149536133" y2="157.06779484121398" style="visibility: inherit;" fill="rgb(0, 0, 0)" stroke="rgb(204, 204, 204)" stroke-width="1px"></line><line x1="51.53200149536133" y1="146.42937539287706" x2="46.53200149536133" y2="146.42937539287706" style="visibility: inherit;" fill="rgb(0, 0, 0)" stroke="rgb(204, 204, 204)" stroke-width="1px"></line><line x1="51.53200149536133" y1="137.43471991117792" x2="46.53200149536133" y2="137.43471991117792" style="visibility: inherit;" fill="rgb(0, 0, 0)" stroke="rgb(204, 204, 204)" stroke-width="1px"></line><line x1="51.53200149536133" y1="129.64319493058747" x2="46.53200149536133" y2="129.64319493058747" style="visibility: inherit;" fill="rgb(0, 0, 0)" stroke="rgb(204, 204, 204)" stroke-width="1px"></line><line x1="51.53200149536133" y1="122.77058283114654" x2="46.53200149536133" y2="122.77058283114654" style="visibility: inherit;" fill="rgb(0, 0, 0)" stroke="rgb(204, 204, 204)" stroke-width="1px"></line><line x1="51.53200149536133" y1="116.62282181719391" x2="46.53200149536133" y2="116.62282181719391" style="visibility: inherit;" fill="rgb(0, 0, 0)" stroke="rgb(204, 204, 204)" stroke-width="1px"></line><line x1="51.53200149536133" y1="76.1778487931738" x2="46.53200149536133" y2="76.1778487931738" style="visibility: inherit;" fill="rgb(0, 0, 0)" stroke="rgb(204, 204, 204)" stroke-width="1px"></line><line x1="51.53200149536133" y1="52.51905623144329" x2="46.53200149536133" y2="52.51905623144329" style="visibility: inherit;" fill="rgb(0, 0, 0)" stroke="rgb(204, 204, 204)" stroke-width="1px"></line><line x1="51.53200149536133" y1="35.73287576915371" x2="46.53200149536133" y2="35.73287576915371" style="visibility: inherit;" fill="rgb(0, 0, 0)" stroke="rgb(204, 204, 204)" stroke-width="1px"></line><line x1="51.53200149536133" y1="22.712502655760144" x2="46.53200149536133" y2="22.712502655760144" style="visibility: inherit;" fill="rgb(0, 0, 0)" stroke="rgb(204, 204, 204)" stroke-width="1px"></line><line x1="51.53200149536133" y1="12.074083207423175" x2="46.53200149536133" y2="12.074083207423175" style="visibility: inherit;" fill="rgb(0, 0, 0)" stroke="rgb(204, 204, 204)" stroke-width="1px"></line><line x1="51.53200149536133" y1="3.079427725724043" x2="46.53200149536133" y2="3.079427725724043" style="visibility: inherit;" fill="rgb(0, 0, 0)" stroke="rgb(204, 204, 204)" stroke-width="1px"></line></g><g transform="translate(41.53200149536133, 0)"><text style="text-anchor: end; visibility: inherit; font-family: Roboto, sans-serif; font-size: 12px; font-weight: 200;" x="0" y="170.08816795460757" dx="0em" dy="0.3em" fill="rgb(33, 33, 33)" stroke="none" stroke-width="1px">0.04</text><text style="text-anchor: end; visibility: hidden; font-family: Roboto, sans-serif; font-size: 12px; font-weight: 200;" x="0" y="157.06779484121398" dx="0em" dy="0.3em" fill="rgb(33, 33, 33)" stroke="none" stroke-width="1px">0.05</text><text style="text-anchor: end; visibility: hidden; font-family: Roboto, sans-serif; font-size: 12px; font-weight: 200;" x="0" y="146.42937539287706" dx="0em" dy="0.3em" fill="rgb(33, 33, 33)" stroke="none" stroke-width="1px">0.06</text><text style="text-anchor: end; visibility: hidden; font-family: Roboto, sans-serif; font-size: 12px; font-weight: 200;" x="0" y="137.43471991117792" dx="0em" dy="0.3em" fill="rgb(33, 33, 33)" stroke="none" stroke-width="1px">0.07</text><text style="text-anchor: end; visibility: inherit; font-family: Roboto, sans-serif; font-size: 12px; font-weight: 200;" x="0" y="129.64319493058747" dx="0em" dy="0.3em" fill="rgb(33, 33, 33)" stroke="none" stroke-width="1px">0.08</text><text style="text-anchor: end; visibility: hidden; font-family: Roboto, sans-serif; font-size: 12px; font-weight: 200;" x="0" y="122.77058283114654" dx="0em" dy="0.3em" fill="rgb(33, 33, 33)" stroke="none" stroke-width="1px">0.09</text><text style="text-anchor: end; visibility: hidden; font-family: Roboto, sans-serif; font-size: 12px; font-weight: 200;" x="0" y="116.62282181719391" dx="0em" dy="0.3em" fill="rgb(33, 33, 33)" stroke="none" stroke-width="1px">0.1</text><text style="text-anchor: end; visibility: hidden; font-family: Roboto, sans-serif; font-size: 12px; font-weight: 200;" x="0" y="76.1778487931738" dx="0em" dy="0.3em" fill="rgb(33, 33, 33)" stroke="none" stroke-width="1px">0.2</text><text style="text-anchor: end; visibility: inherit; font-family: Roboto, sans-serif; font-size: 12px; font-weight: 200;" x="0" y="52.51905623144329" dx="0em" dy="0.3em" fill="rgb(33, 33, 33)" stroke="none" stroke-width="1px">0.3</text><text style="text-anchor: end; visibility: hidden; font-family: Roboto, sans-serif; font-size: 12px; font-weight: 200;" x="0" y="35.73287576915371" dx="0em" dy="0.3em" fill="rgb(33, 33, 33)" stroke="none" stroke-width="1px">0.4</text><text style="text-anchor: end; visibility: hidden; font-family: Roboto, sans-serif; font-size: 12px; font-weight: 200;" x="0" y="22.712502655760144" dx="0em" dy="0.3em" fill="rgb(33, 33, 33)" stroke="none" stroke-width="1px">0.5</text><text style="text-anchor: end; visibility: hidden; font-family: Roboto, sans-serif; font-size: 12px; font-weight: 200;" x="0" y="12.074083207423175" dx="0em" dy="0.3em" fill="rgb(33, 33, 33)" stroke="none" stroke-width="1px">0.6</text><text style="text-anchor: end; visibility: hidden; font-family: Roboto, sans-serif; font-size: 12px; font-weight: 200;" x="0" y="3.079427725724043" dx="0em" dy="0.3em" fill="rgb(33, 33, 33)" stroke="none" stroke-width="1px">0.7</text></g><line x1="51.53200149536133" y1="0" x2="51.53200149536133" y2="176.55199909210205" fill="rgb(0, 0, 0)" stroke="rgb(204, 204, 204)" stroke-width="1px"></line></g></g><g transform="translate(51, 0)" clip-path="url(#clip_0)"><clipPath id="clip_0"><rect width="278" height="176"></rect></clipPath><g><g><g><line x1="0" y1="0" x2="0" y2="176.55199909210205" fill="rgb(0, 0, 0)" stroke="rgb(66, 66, 66)" stroke-width="1px" opacity="0.25"></line><line x1="19.890571321759904" y1="0" x2="19.890571321759904" y2="176.55199909210205" fill="rgb(0, 0, 0)" stroke="rgb(66, 66, 66)" stroke-width="1px" opacity="0.25"></line><line x1="39.78114264351981" y1="0" x2="39.78114264351981" y2="176.55199909210205" fill="rgb(0, 0, 0)" stroke="rgb(66, 66, 66)" stroke-width="1px" opacity="0.25"></line><line x1="59.671713965279714" y1="0" x2="59.671713965279714" y2="176.55199909210205" fill="rgb(0, 0, 0)" stroke="rgb(66, 66, 66)" stroke-width="1px" opacity="0.25"></line><line x1="79.56228528703961" y1="0" x2="79.56228528703961" y2="176.55199909210205" fill="rgb(0, 0, 0)" stroke="rgb(66, 66, 66)" stroke-width="1px" opacity="0.25"></line><line x1="99.45285660879952" y1="0" x2="99.45285660879952" y2="176.55199909210205" fill="rgb(0, 0, 0)" stroke="rgb(66, 66, 66)" stroke-width="1px" opacity="0.25"></line><line x1="119.34342793055943" y1="0" x2="119.34342793055943" y2="176.55199909210205" fill="rgb(0, 0, 0)" stroke="rgb(66, 66, 66)" stroke-width="1px" opacity="0.25"></line><line x1="139.23399925231934" y1="0" x2="139.23399925231934" y2="176.55199909210205" fill="rgb(0, 0, 0)" stroke="rgb(66, 66, 66)" stroke-width="1px" opacity="0.25"></line><line x1="159.12457057407923" y1="0" x2="159.12457057407923" y2="176.55199909210205" fill="rgb(0, 0, 0)" stroke="rgb(66, 66, 66)" stroke-width="1px" opacity="0.25"></line><line x1="179.01514189583915" y1="0" x2="179.01514189583915" y2="176.55199909210205" fill="rgb(0, 0, 0)" stroke="rgb(66, 66, 66)" stroke-width="1px" opacity="0.25"></line><line x1="198.90571321759904" y1="0" x2="198.90571321759904" y2="176.55199909210205" fill="rgb(0, 0, 0)" stroke="rgb(66, 66, 66)" stroke-width="1px" opacity="0.25"></line><line x1="218.79628453935896" y1="0" x2="218.79628453935896" y2="176.55199909210205" fill="rgb(0, 0, 0)" stroke="rgb(66, 66, 66)" stroke-width="1px" opacity="0.25"></line><line x1="238.68685586111886" y1="0" x2="238.68685586111886" y2="176.55199909210205" fill="rgb(0, 0, 0)" stroke="rgb(66, 66, 66)" stroke-width="1px" opacity="0.25"></line><line x1="258.57742718287875" y1="0" x2="258.57742718287875" y2="176.55199909210205" fill="rgb(0, 0, 0)" stroke="rgb(66, 66, 66)" stroke-width="1px" opacity="0.25"></line><line x1="278.4679985046387" y1="0" x2="278.4679985046387" y2="176.55199909210205" fill="rgb(0, 0, 0)" stroke="rgb(66, 66, 66)" stroke-width="1px" opacity="0.25"></line></g><g><line x1="0" y1="170.08816795460757" x2="278.4679985046387" y2="170.08816795460757" fill="rgb(0, 0, 0)" stroke="rgb(66, 66, 66)" stroke-width="1px" opacity="0.25"></line><line x1="0" y1="157.06779484121398" x2="278.4679985046387" y2="157.06779484121398" fill="rgb(0, 0, 0)" stroke="rgb(66, 66, 66)" stroke-width="1px" opacity="0.25"></line><line x1="0" y1="146.42937539287706" x2="278.4679985046387" y2="146.42937539287706" fill="rgb(0, 0, 0)" stroke="rgb(66, 66, 66)" stroke-width="1px" opacity="0.25"></line><line x1="0" y1="137.43471991117792" x2="278.4679985046387" y2="137.43471991117792" fill="rgb(0, 0, 0)" stroke="rgb(66, 66, 66)" stroke-width="1px" opacity="0.25"></line><line x1="0" y1="129.64319493058747" x2="278.4679985046387" y2="129.64319493058747" fill="rgb(0, 0, 0)" stroke="rgb(66, 66, 66)" stroke-width="1px" opacity="0.25"></line><line x1="0" y1="122.77058283114654" x2="278.4679985046387" y2="122.77058283114654" fill="rgb(0, 0, 0)" stroke="rgb(66, 66, 66)" stroke-width="1px" opacity="0.25"></line><line x1="0" y1="116.62282181719391" x2="278.4679985046387" y2="116.62282181719391" fill="rgb(0, 0, 0)" stroke="rgb(66, 66, 66)" stroke-width="1px" opacity="0.25"></line><line x1="0" y1="76.1778487931738" x2="278.4679985046387" y2="76.1778487931738" fill="rgb(0, 0, 0)" stroke="rgb(66, 66, 66)" stroke-width="1px" opacity="0.25"></line><line x1="0" y1="52.51905623144329" x2="278.4679985046387" y2="52.51905623144329" fill="rgb(0, 0, 0)" stroke="rgb(66, 66, 66)" stroke-width="1px" opacity="0.25"></line><line x1="0" y1="35.73287576915371" x2="278.4679985046387" y2="35.73287576915371" fill="rgb(0, 0, 0)" stroke="rgb(66, 66, 66)" stroke-width="1px" opacity="0.25"></line><line x1="0" y1="22.712502655760144" x2="278.4679985046387" y2="22.712502655760144" fill="rgb(0, 0, 0)" stroke="rgb(66, 66, 66)" stroke-width="1px" opacity="0.25"></line><line x1="0" y1="12.074083207423175" x2="278.4679985046387" y2="12.074083207423175" fill="rgb(0, 0, 0)" stroke="rgb(66, 66, 66)" stroke-width="1px" opacity="0.25"></line><line x1="0" y1="3.079427725724043" x2="278.4679985046387" y2="3.079427725724043" fill="rgb(0, 0, 0)" stroke="rgb(66, 66, 66)" stroke-width="1px" opacity="0.25"></line></g></g></g><g><g><line x1="19.890571321759904" y1="0" x2="19.890571321759904" y2="176.55199909210205" fill="rgb(0, 0, 0)" stroke="rgb(153, 153, 153)" stroke-width="1.5px"></line></g></g><g><g><g><g><g><path style="fill: none;" stroke="rgb(51, 187, 238)" stroke-width="2px" d="M21.879628453935894,28.140485429927566L23.868685586111887,45.3419240346927L25.857742718287877,54.70262958105043L27.846799850463867,61.024794150141176L29.835856982639857,65.90070531161663L31.824914114815847,69.83847869232225L33.81397124699184,73.00824058677111L35.80302837916783,75.82141997674621L37.792085511343814,78.23592326071346L39.78114264351981,80.48297105208624L41.7701997756958,82.50128846991267L43.75925690787179,84.3125348290461L45.74831404004778,85.96561394226146L47.737371172223774,87.42465423078468L49.72642830439976,88.86014145793446L51.715485436575754,90.2516740963096L53.70454256875175,91.6984193574426L55.693599700927734,92.88008319739163L57.68265683310373,94.0328943009887L59.671713965279714,95.06183154459808L61.6607710974557,96.110727514004L63.649828229631694,97.2360443069623L65.63888536180768,98.00280505516513L67.62794249398368,98.70234027830126L69.61699962615967,99.55419039004558L71.60605675833565,100.21442934317123L73.59511389051166,100.84546056190803L75.58417102268763,101.54203908512324L77.57322815486363,102.22433899244989L79.56228528703961,102.91479157426714L81.55134241921562,103.61455584198318L83.5403995513916,104.17759886527602L85.5294566835676,104.68718478412852L87.51851381574357,105.43400320372389L89.50757094791958,105.96119817363314L91.49662808009556,106.58445664072367L93.48568521227155,107.13032602109396L95.47474234444755,107.75153787491764L97.46379947662354,108.24000452321552L99.45285660879952,108.70805755078416L101.44191374097551,109.3440678422386L103.43097087315151,109.96454831465134L105.4200280053275,110.35950511606579L107.4090851375035,110.53742811778939L109.39814226967948,110.88718531247157L111.38719940185547,111.39534021926103L113.37625653403146,111.7953226037897L115.36531366620746,112.23812062882257L117.35437079838344,112.62401363484742L119.34342793055943,113.05780372492455L121.33248506273543,113.29140639966687L123.3215421949114,113.6279016639754L125.3105993270874,113.90776684933107L127.29965645926339,114.12922077535936L129.28871359143938,114.45698174043864L131.27777072361536,114.82033258627163L133.26682785579138,115.27508260205444L135.25588498796736,115.64463534425305L137.24494212014335,116.03430438602163L139.23399925231934,116.29057166648067L141.22305638449532,116.36393792422649L143.2121135166713,116.59259927439822L145.20117064884732,116.89259370387609L147.1902277810233,117.09097134933998L149.1792849131993,117.40482019565465L151.16834204537525,117.79841502930296L153.15739917755127,118.05761222489143L155.14645630972726,118.49462486680753L157.13551344190324,118.96644831918246L159.12457057407923,119.47498735466198L161.11362770625524,119.95640999128977L163.10268483843123,120.38741132417798L165.09174197060722,120.56556240459454L167.0807991027832,120.95490791201073L169.0698562349592,121.32757319074591L171.0589133671352,121.8972384634964L173.0479704993112,122.22783229445297L175.03702763148715,122.61733501951454L177.02608476366314,122.97534622908657L179.01514189583915,123.39780156738703L181.00419902801514,123.60195164757394L182.99325616019112,123.81537449511451L184.9823132923671,124.082589853895L186.9713704245431,124.25961155598553L188.9604275567191,124.62806165510668L190.9494846888951,124.98928929117123L192.93854182107108,125.41644092732567L194.92759895324707,125.69406318623189L196.91665608542309,126.16858312729411L198.90571321759904,126.63030087660039L200.89477034977503,127.00276054818622L202.88382748195102,127.42301104983805L204.87288461412703,128.01857636466661L206.86194174630302,128.54672429125603L208.850998878479,128.95042229928183L210.840056010655,129.19280502122785L212.82911314283098,129.5380605514523L214.818170275007,129.853336644097L216.80722740718298,130.3185608191478L218.79628453935896,130.70557918340958L220.78534167153492,131.11387507666873L222.77439880371094,131.65691205069155L224.76345593588692,132.17587923022484L226.7525130680629,132.7760532364727L228.7415702002389,133.26247885954857L230.7306273324149,133.8092191965122L232.7196844645909,134.3402535799876L234.70874159676688,135.15122875566232L236.69779872894287,135.77802035006044L238.68685586111886,136.49028026889894L240.67591299329487,136.92500353270296L242.66497012547086,137.56207312330093L244.65402725764682,138.2036961726056L246.6430843898228,139.10336888149604L248.63214152199882,139.9201832074583L250.6211986541748,140.68022354555094L252.6102557863508,141.48918119792955L254.59931291852678,142.4377953914002L256.58837005070274,143.47130431078756L258.57742718287875,144.52705039260098" fill="none"></path></g><g><path style="fill: none;" stroke="rgb(238, 51, 119)" stroke-width="2px" d="M21.879628453935894,29.217277468599608L23.868685586111887,44.78207150468908L25.857742718287877,53.240009464850225L27.846799850463867,58.95960991542056L29.835856982639857,63.36436473344887L31.824914114815847,66.99908913949487L33.81397124699184,69.79413239352877L35.80302837916783,72.2528239222924L37.792085511343814,74.34019705936979L39.78114264351981,76.21824296930227L41.7701997756958,78.02215950844095L43.75925690787179,79.62412952227898L45.74831404004778,81.19665290912197L47.737371172223774,82.39469641336882L49.72642830439976,83.75371932793995L51.715485436575754,84.96510749570825L53.70454256875175,86.06817395415895L55.693599700927734,87.15154582351175L57.68265683310373,88.22949836565094L59.671713965279714,89.17385134608065L61.6607710974557,89.93774796517859L63.649828229631694,90.82279117615298L65.63888536180768,91.5453975602313L67.62794249398368,92.12093167347679L69.61699962615967,92.82252372481686L71.60605675833565,93.34079465217697L73.59511389051166,93.93432498688468L75.58417102268763,94.63868295532109L77.57322815486363,95.00409030535744L79.56228528703961,95.56135973071102L81.55134241921562,96.10382069197533L83.5403995513916,96.58167012758437L85.5294566835676,97.04631334831362L87.51851381574357,97.33413378426896L89.50757094791958,97.68583897133144L91.49662808009556,98.00896375497547L93.48568521227155,98.06047330626419L95.47474234444755,98.29319050036231L97.46379947662354,98.51041197080454L99.45285660879952,98.82736407324028L101.44191374097551,99.12325557220431L103.43097087315151,99.35208591325049L105.4200280053275,99.74164343375516L107.4090851375035,100.10592474196103L109.39814226967948,100.38378237541953L111.38719940185547,100.74494535870429L113.37625653403146,101.00323925350254L115.36531366620746,101.08539922980958L117.35437079838344,101.3811985772411L119.34342793055943,101.64320285025978L121.33248506273543,101.89570896333878L123.3215421949114,101.8823591007366L125.3105993270874,102.17545909202784L127.29965645926339,102.46708486542448L129.28871359143938,102.4487197683974L131.27777072361536,102.47840470778348L133.26682785579138,102.74578859262476L135.25588498796736,103.19870724152615L137.24494212014335,103.35447513265373L139.23399925231934,103.82950900007121L141.22305638449532,104.03269063298325L143.2121135166713,104.15018424811323L145.20117064884732,104.40488487505417L147.1902277810233,104.6986888290719L149.1792849131993,104.87692253925209L151.16834204537525,105.14235599814L153.15739917755127,105.27905090037747L155.14645630972726,105.32200271014803L157.13551344190324,105.44191773231105L159.12457057407923,105.64150701244192L161.11362770625524,105.82227260309722L163.10268483843123,105.99059147018343L165.09174197060722,106.50091394325199L167.0807991027832,106.84324475659395L169.0698562349592,107.10423460200663L171.0589133671352,107.50288257973503L173.0479704993112,107.85894897686013L175.03702763148715,108.10708478695372L177.02608476366314,108.29403983913673L179.01514189583915,108.84189260159224L181.00419902801514,109.33855108590208L182.99325616019112,109.90568640490703L184.9823132923671,110.48967979575107L186.9713704245431,110.7440732314743L188.9604275567191,110.96916119960612L190.9494846888951,111.51250186378918L192.93854182107108,111.90815398353344L194.92759895324707,112.28467909137233L196.91665608542309,112.48851980532669L198.90571321759904,112.89400770120078L200.89477034977503,113.27243515975297L202.88382748195102,113.6345364632681L204.87288461412703,114.13327254894475L206.86194174630302,114.43552719573852L208.850998878479,114.78641228168512L210.840056010655,115.18150531962081L212.82911314283098,115.53892484659306L214.818170275007,115.99674872519007L216.80722740718298,116.5052495058313L218.79628453935896,117.38062128187205L220.78534167153492,117.94614288655401L222.77439880371094,118.36325100545176L224.76345593588692,118.96519982138145L226.7525130680629,119.57450593707296L228.7415702002389,120.1527818089628L230.7306273324149,120.81239430628831L232.7196844645909,121.3376993611606L234.70874159676688,122.04382059804226L236.69779872894287,122.74423102897663L238.68685586111886,123.44420691845382L240.67591299329487,124.08303687486077L242.66497012547086,124.66376078613719L244.65402725764682,125.3271017640949L246.6430843898228,125.97759584725716L248.63214152199882,126.8689341173624L250.6211986541748,127.62175309153679L252.6102557863508,128.68448408817105L254.59931291852678,129.93285640303782L256.58837005070274,130.98903998398376L258.57742718287875,132.2531933168089" fill="none"></path></g><g><path style="fill: none;" stroke="rgb(0, 153, 136)" stroke-width="2px" d="M21.879628453935894,25.221714156014567L23.868685586111887,43.35357109169195L25.857742718287877,54.10585684056732L27.846799850463867,61.46759545143392L29.835856982639857,67.05429890276676L31.824914114815847,71.6400226042231L33.81397124699184,75.52596215342413L35.80302837916783,78.81033534704204L37.792085511343814,81.89041108894509L39.78114264351981,84.60572988749313L41.7701997756958,86.97435902982865L43.75925690787179,89.25196478516655L45.74831404004778,91.27308469244676L47.737371172223774,93.18903048453386L49.72642830439976,95.0143431810849L51.715485436575754,96.66308468476409L53.70454256875175,98.22700029442908L55.693599700927734,99.77871128848031L57.68265683310373,101.2032405831629L59.671713965279714,102.522888468658L61.6607710974557,103.90499555995656L63.649828229631694,104.96676901050385L65.63888536180768,106.19771073689822L67.62794249398368,107.37400347288367L69.61699962615967,108.55267213276703L71.60605675833565,109.52853034671391L73.59511389051166,110.53270530529716L75.58417102268763,111.60216756485607L77.57322815486363,112.44494997642632L79.56228528703961,113.46233817013125L81.55134241921562,114.28758506880615L83.5403995513916,115.10322014658814L85.5294566835676,115.90409534052716L87.51851381574357,116.66815520569982L89.50757094791958,117.3976645073841L91.49662808009556,118.04902651263598L93.48568521227155,118.6475834603344L95.47474234444755,119.2162988869874L97.46379947662354,119.7990330243333L99.45285660879952,120.4496949024215L101.44191374097551,120.99900927533999L103.43097087315151,121.51168017200743L105.4200280053275,122.06612168691116L107.4090851375035,122.57694660426641L109.39814226967948,123.24520953377407L111.38719940185547,123.79753267109857L113.37625653403146,124.22716359722084L115.36531366620746,124.75139214602008L117.35437079838344,125.33728280074119L119.34342793055943,125.85712268268519L121.33248506273543,126.3153202061483L123.3215421949114,126.8472019761511L125.3105993270874,127.24489767729925L127.29965645926339,127.70366279870252L129.28871359143938,128.1909052266382L131.27777072361536,128.6626151423676L133.26682785579138,129.03607499072947L135.25588498796736,129.47371045185236L137.24494212014335,129.7701341236065L139.23399925231934,130.14348627646697L141.22305638449532,130.60267297086156L143.2121135166713,130.9667060999852L145.20117064884732,131.30934895111855L147.1902277810233,131.72708285672823L149.1792849131993,132.06318764394044L151.16834204537525,132.50693532249986L153.15739917755127,132.77764648345976L155.14645630972726,133.07671026080297L157.13551344190324,133.33450019855349L159.12457057407923,133.71696111314614L161.11362770625524,134.01741427621965L163.10268483843123,134.36428057654922L165.09174197060722,134.7920585892345L167.0807991027832,135.14232632921238L169.0698562349592,135.5404923704951L171.0589133671352,135.7696546257604L173.0479704993112,136.1654206440475L175.03702763148715,136.40002552102914L177.02608476366314,136.843789109476L179.01514189583915,137.15414607636876L181.00419902801514,137.4695224507317L182.99325616019112,137.86232568711947L184.9823132923671,138.17726227882926L186.9713704245431,138.32968422394055L188.9604275567191,138.76894995920313L190.9494846888951,139.02816884681766L192.93854182107108,139.22237587538697L194.92759895324707,139.52190136944606L196.91665608542309,139.95698817369225L198.90571321759904,140.4744158727933L200.89477034977503,140.869805149863L202.88382748195102,140.9887999271976L204.87288461412703,141.38652674893999L206.86194174630302,141.76627524966565L208.850998878479,142.13573261823717L210.840056010655,142.344095724283L212.82911314283098,142.52685045146163L214.818170275007,142.96190396401053L216.80722740718298,143.28577619634373L218.79628453935896,143.79380102605327L220.78534167153492,144.04392211633947L222.77439880371094,144.4187944255481L224.76345593588692,144.72095245916586L226.7525130680629,145.08336967611345L228.7415702002389,145.53868588840913L230.7306273324149,145.90011753992576L232.7196844645909,146.2876444964882L234.70874159676688,146.56769180019646L236.69779872894287,147.05175561167698L238.68685586111886,147.35294701682233L240.67591299329487,147.72142522317495L242.66497012547086,148.27876924605175L244.65402725764682,148.53990565130096L246.6430843898228,148.90078709366313L248.63214152199882,149.42558103009034L250.6211986541748,149.93809704294944L252.6102557863508,150.27757343142335L254.59931291852678,150.60910636466937L256.58837005070274,150.9076536812368L258.57742718287875,151.33028493608748" fill="none"></path></g><g><path style="fill: none;" stroke="rgb(0, 153, 136)" stroke-width="2px" d="M21.879628453935894,30.415068761769266L23.868685586111887,47.18226975592256L25.857742718287877,56.63413106314292L27.846799850463867,63.455021152935586L29.835856982639857,68.41291449434604L31.824914114815847,72.32912835470349L33.81397124699184,75.92729023625346L35.80302837916783,78.70916909369892L37.792085511343814,81.45751154269992L39.78114264351981,83.61457404055865L41.7701997756958,85.68168371354976L43.75925690787179,87.59643672848135L45.74831404004778,89.33125294415811L47.737371172223774,90.86334674548786L49.72642830439976,92.32501752183461L51.715485436575754,93.78568356194508L53.70454256875175,95.14240076333917L55.693599700927734,96.44060598479393L57.68265683310373,97.64371809427115L59.671713965279714,98.68731774622321L61.6607710974557,99.81065593335862L63.649828229631694,100.99071425812829L65.63888536180768,102.0056705982022L67.62794249398368,103.05886000205925L69.61699962615967,103.85540128604231L71.60605675833565,104.66200735130451L73.59511389051166,105.30046207749685L75.58417102268763,106.15137109363428L77.57322815486363,106.90207060494345L79.56228528703961,107.58361471930529L81.55134241921562,108.21129005962761L83.5403995513916,108.81321056560621L85.5294566835676,109.4588892458768L87.51851381574357,110.09768891328369L89.50757094791958,110.60592766269903L91.49662808009556,111.17688968072085L93.48568521227155,111.68690280074361L95.47474234444755,112.13120279627712L97.46379947662354,112.66573719219615L99.45285660879952,113.23138508853731L101.44191374097551,113.71369525487277L103.43097087315151,114.22327265300798L105.4200280053275,114.79142847175176L107.4090851375035,115.43167472626591L109.39814226967948,116.06564592314515L111.38719940185547,116.65530810962025L113.37625653403146,117.1807012299804L115.36531366620746,117.67755121211081L117.35437079838344,118.20620485527293L119.34342793055943,118.69249700525661L121.33248506273543,119.11775297104799L123.3215421949114,119.61860520248966L125.3105993270874,119.83262320471532L127.29965645926339,120.08096555312365L129.28871359143938,120.32221851315819L131.27777072361536,120.64220047606459L133.26682785579138,120.98325294690856L135.25588498796736,121.6321264139422L137.24494212014335,121.99997820449666L139.23399925231934,122.44171785862618L141.22305638449532,122.83278247873247L143.2121135166713,123.4599339646898L145.20117064884732,123.5857116686419L147.1902277810233,124.01860026993364L149.1792849131993,124.51072814563065L151.16834204537525,124.90446473508882L153.15739917755127,125.14733823001923L155.14645630972726,125.4516879765303L157.13551344190324,125.68518118597012L159.12457057407923,126.0032424346099L161.11362770625524,126.46116316146455L163.10268483843123,126.75859095562406L165.09174197060722,127.13624488434782L167.0807991027832,127.35162171523444L169.0698562349592,127.60348697967869L171.0589133671352,127.90437065318685L173.0479704993112,128.1516902673767L175.03702763148715,128.5517104322109L177.02608476366314,128.7534312808885L179.01514189583915,129.3225237442L181.00419902801514,129.61391591037264L182.99325616019112,130.0438171223916L184.9823132923671,130.24084931068245L186.9713704245431,130.6815870314004L188.9604275567191,130.9844346982984L190.9494846888951,131.47741504539985L192.93854182107108,131.8698794379796L194.92759895324707,132.12442844535792L196.91665608542309,132.6653025384304L198.90571321759904,133.09032966875498L200.89477034977503,133.25747073415513L202.88382748195102,133.56310228890305L204.87288461412703,133.8136103469191L206.86194174630302,134.03862310663825L208.850998878479,134.70602625072084L210.840056010655,135.04042449695615L212.82911314283098,135.4329929499803L214.818170275007,135.86958486412647L216.80722740718298,136.28308460860382L218.79628453935896,136.65511980947187L220.78534167153492,137.248918381847L222.77439880371094,137.89291356439168L224.76345593588692,138.29015808334003L226.7525130680629,138.6864440204924L228.7415702002389,139.1639225103684L230.7306273324149,139.5936695838345L232.7196844645909,140.1667208360867L234.70874159676688,140.5388633736362L236.69779872894287,140.9592786359664L238.68685586111886,141.91360847412082L240.67591299329487,142.48973793112768L242.66497012547086,143.1180790484775L244.65402725764682,143.7294790727276L246.6430843898228,144.13673560410177L248.63214152199882,144.65322087542413L250.6211986541748,145.59349787524098L252.6102557863508,146.3322803624108L254.59931291852678,146.9861266763151L256.58837005070274,147.76372948757722L258.57742718287875,148.61681663449193" fill="none"></path></g></g></g></g><g opacity="0.2"><g><g><g><path style="fill: none;" stroke="rgb(51, 187, 238)" stroke-width="2px" d="M21.879628453935894,28.140485429927566L23.868685586111887,66.2681771315132L25.857742718287877,74.4735528783115L27.846799850463867,79.12723352479951L29.835856982639857,83.09029413390256L31.824914114815847,85.93144020391824L33.81397124699184,87.3930159607845L35.80302837916783,89.82296171400584L37.792085511343814,91.07663301118201L39.78114264351981,93.20264714514879L41.7701997756958,94.45732602469626L43.75925690787179,95.4384408115644L45.74831404004778,96.44120750773287L47.737371172223774,96.87609225584595L49.72642830439976,98.42491345684357L51.715485436575754,99.73417109396316L53.70454256875175,101.81686604977651L55.693599700927734,101.14190811074342L57.68265683310373,102.20755498269929L59.671713965279714,102.39436245263262L61.6607710974557,103.68768162984234L63.649828229631694,105.49842699052226L65.63888536180768,103.53541212275113L67.62794249398368,103.76482185560896L69.61699962615967,105.83154312488611L71.60605675833565,105.04021106568953L73.59511389051166,105.47191828167492L75.58417102268763,106.69732699446769L77.57322815486363,107.28882443985266L79.56228528703961,108.06091927225663L81.55134241921562,108.84979435182841L83.5403995513916,108.35844772658665L85.5294566835676,108.4649888770309L87.51851381574357,111.08137076130281L89.50757094791958,109.88972258685871L91.49662808009556,111.2696603757356L93.48568521227155,111.21575942427155L95.47474234444755,112.43288162334882L97.46379947662354,111.88856477736809L99.45285660879952,112.20211635331208L101.44191374097551,114.15597555786644L103.43097087315151,114.65687354411018L105.4200280053275,113.2983832998683L107.4090851375035,111.84132255273616L109.39814226967948,113.48379623796225L111.38719940185547,115.21402411310493L113.37625653403146,114.77819089489807L115.36531366620746,115.55186005957172L117.35437079838344,115.50060285110492L119.34342793055943,116.30373535034718L121.33248506273543,115.01430181865416L123.3215421949114,116.12884945411182L125.3105993270874,115.97957831051201L127.29965645926339,115.76191947328981L129.28871359143938,116.89256468488513L131.27777072361536,117.52776993882065L133.26682785579138,118.68691479358245L135.25588498796736,118.40007623097662L137.24494212014335,118.94428243908094L139.23399925231934,118.18583427616764L141.22305638449532,116.89945707003142L143.2121135166713,118.28050209162738L145.20117064884732,119.11869731865055L147.1902277810233,118.55224950828446L149.1792849131993,119.73627552121474L151.16834204537525,120.73957478303312L153.15739917755127,119.97552726586957L155.14645630972726,121.7709253575375L157.13551344190324,122.51298227433985L159.12457057407923,123.30807772465788L161.11362770625524,123.5778227152859L163.10268483843123,123.61743921534809L165.09174197060722,121.87620183767152L167.0807991027832,123.86383989656808L169.0698562349592,124.10848304663025L171.0589133671352,126.21116648200415L173.0479704993112,124.68721129219382L175.03702763148715,125.52757346632035L177.02608476366314,125.64409943397371L179.01514189583915,126.56199738807196L181.00419902801514,125.10677947714397L182.99325616019112,125.38961696270846L184.9823132923671,126.06134347120356L186.9713704245431,125.56192866599636L188.9604275567191,127.37680856340121L190.9494846888951,127.68272704748553L192.93854182107108,128.6170005910468L194.92759895324707,127.7514674105743L196.91665608542309,129.73663133559685L198.90571321759904,130.09877853970892L200.89477034977503,129.78227202102025L202.88382748195102,130.5702736485536L204.87288461412703,132.5377342426095L206.86194174630302,132.534011038234L208.850998878479,131.97002560371322L210.840056010655,130.9844666303389L212.82911314283098,132.10941479741768L214.818170275007,132.19625251138393L216.80722740718298,133.8143181011261L218.79628453935896,133.59686030111132L220.78534167153492,134.1689189099107L222.77439880371094,135.76121052871468L224.76345593588692,136.09117448573446L226.7525130680629,137.33179583624985L228.7415702002389,136.9233408826676L230.7306273324149,137.94266291223173L232.7196844645909,138.35022166287465L234.70874159676688,141.40736509306402L236.69779872894287,140.54542424519408L238.68685586111886,141.94321061080987L240.67591299329487,140.18417629610042L242.66497012547086,142.41143876636283L244.65402725764682,143.08941451031976L246.6430843898228,146.0919420825081L248.63214152199882,146.22422548024844L250.6211986541748,146.52037703394114L252.6102557863508,147.72878147333753L254.59931291852678,149.8349660872588L256.58837005070274,151.58491696731065L258.57742718287875,152.8299636561582" fill="none"></path></g><g><path style="fill: none;" stroke="rgb(238, 51, 119)" stroke-width="2px" d="M21.879628453935894,29.217277468599608L23.868685586111887,63.04334475916973L25.857742718287877,70.6228782492981L27.846799850463867,74.97625171864989L29.835856982639857,78.58233124541314L31.824914114815847,81.63930268403101L33.81397124699184,82.23661656465615L35.80302837916783,84.25281672685428L37.792085511343814,85.23280395256884L39.78114264351981,86.61319865864624L41.7701997756958,88.56404401801957L43.75925690787179,89.33164506376737L45.74831404004778,91.1082373091072L47.737371172223774,90.02076614644848L49.72642830439976,92.76106711355132L51.715485436575754,93.11607651219164L53.70454256875175,93.59548524083849L55.693599700927734,94.67295607129245L57.68265683310373,95.83188628457384L59.671713965279714,95.86245267865094L61.6607710974557,95.34280950431113L63.649828229631694,97.20618831583148L65.63888536180768,96.74270476975312L67.62794249398368,96.24884237581658L69.61699962615967,97.93551338258494L71.60605675833565,97.08997804946003L73.59511389051166,98.27389701502061L75.58417102268763,99.85456102958709L77.57322815486363,97.65423943000906L79.56228528703961,99.67399436211265L81.55134241921562,100.11499546306077L83.5403995513916,100.10770323457828L85.5294566835676,100.4795605728163L87.51851381574357,99.43791506046858L89.50757094791958,100.27308654490955L91.49662808009556,100.38473308737592L93.48568521227155,98.43240579528916L95.47474234444755,99.99744161647475L97.46379947662354,100.10107353566019L99.45285660879952,101.16731438729522L101.44191374097551,101.30614690162926L103.43097087315151,101.03325093613299L105.4200280053275,102.63919347670422L107.4090851375035,102.81193441115857L109.39814226967948,102.43580202329504L111.38719940185547,103.42962289322027L113.37625653403146,102.90958329555113L115.36531366620746,101.68433915827579L117.35437079838344,103.57167030289689L119.34342793055943,103.57913045343284L121.33248506273543,103.76058107777149L123.3215421949114,101.78560579007902L125.3105993270874,104.34734303162926L127.29965645926339,104.62813830465986L129.28871359143938,102.3156061944929L131.27777072361536,102.69432455723046L133.26682785579138,104.7243954830834L135.25588498796736,106.59664569767219L137.24494212014335,104.49805117056498L139.23399925231934,107.39977541821786L141.22305638449532,105.52966381146878L143.2121135166713,105.0105569109415L145.20117064884732,106.2886509959138L147.1902277810233,106.87796001096488L149.1792849131993,106.18795559967035L151.16834204537525,107.10725309388478L153.15739917755127,106.28159367320464L155.14645630972726,105.63492181333807L157.13551344190324,106.32037579031751L159.12457057407923,107.11207663974221L161.11362770625524,107.15236105894081L163.10268483843123,107.22800223473942L165.09174197060722,110.34813499890248L167.0807991027832,109.39206700752895L169.0698562349592,109.0359205473718L171.0589133671352,110.48342231439126L173.0479704993112,110.51279057227133L175.03702763148715,109.94195825136205L177.02608476366314,109.67039358594322L179.01514189583915,112.98393736870419L181.00419902801514,113.07916483228526L182.99325616019112,114.19978755138642L184.9823132923671,114.91706924336194L186.9713704245431,112.62612650280943L188.9604275567191,112.63086829463433L190.9494846888951,115.61912502884326L192.93854182107108,114.86578425485983L194.92759895324707,115.09535974658252L196.91665608542309,113.99106596067084L198.90571321759904,115.92738569200075L200.89477034977503,116.09772553732408L202.88382748195102,116.334688187526L204.87288461412703,117.89021869818527L206.86194174630302,116.67952984468948L208.850998878479,117.40077278458914L210.840056010655,118.13486587452893L212.82911314283098,118.20325649313796L214.818170275007,119.43500135307319L216.80722740718298,120.33856864420515L218.79628453935896,124.16748155239928L220.78534167153492,122.22762262750304L222.77439880371094,121.48627112737749L224.76345593588692,123.53502734455216L226.7525130680629,124.20276772765439L228.7415702002389,124.53504197293067L230.7306273324149,125.84197616730401L232.7196844645909,125.30269810402349L234.70874159676688,127.44720937121572L236.69779872894287,128.10157568676047L238.68685586111886,128.7980502536149L240.67591299329487,128.94645286958087L242.66497012547086,129.06539028170457L244.65402725764682,130.38655562633082L246.6430843898228,130.93420926729942L248.63214152199882,133.7882445119987L250.6211986541748,133.4031979249862L252.6102557863508,137.04699946741428L254.59931291852678,139.90489353182485L256.58837005070274,139.2956842132879L258.57742718287875,142.3643633858099" fill="none"></path></g><g><path style="fill: none;" stroke="rgb(0, 153, 136)" stroke-width="2px" d="M21.879628453935894,25.221714156014567L23.868685586111887,65.88632775204535L25.857742718287877,77.84052525831294L27.846799850463867,83.4091717366268L29.835856982639857,87.3828693341576L31.824914114815847,90.99325852484736L33.81397124699184,93.85095966248315L35.80302837916783,95.60348995211092L37.792085511343814,98.94457895173235L39.78114264351981,100.43833377887874L41.7701997756958,101.32920964711664L43.75925690787179,103.68812745565151L45.74831404004778,104.40765293046178L47.737371172223774,106.00150231343423L49.72642830439976,107.518818567386L51.715485436575754,108.1084540035558L53.70454256875175,109.25944463901864L55.693599700927734,110.92732356976035L57.68265683310373,111.51002487530685L59.671713965279714,112.13182373945658L61.6607710974557,114.14259129942138L63.649828229631694,112.72555741773616L65.63888536180768,115.39342149779466L67.62794249398368,116.19588990183583L69.61699962615967,117.45673496366756L71.60605675833565,116.83132461449861L73.59511389051166,118.10394678036955L75.58417102268763,119.74441564751079L77.57322815486363,118.77653984141266L79.56228528703961,121.23648478647439L81.55134241921562,120.52046118665923L83.5403995513916,121.27574790332478L85.5294566835676,121.97254325152173L87.51851381574357,122.45348000959403L89.50757094791958,122.91695722239618L91.49662808009556,122.95585604466851L93.48568521227155,123.14502750089746L95.47474234444755,123.48518713444315L97.46379947662354,124.1824396912138L99.45285660879952,125.37382088951661L101.44191374097551,125.12798038189108L103.43097087315151,125.35746355460108L105.4200280053275,126.24091277799448L107.4090851375035,126.41292757611973L109.39814226967948,128.32583865525783L111.38719940185547,127.9618820957651L113.37625653403146,127.438166534502L115.36531366620746,128.69841011143728L117.35437079838344,129.77035473589123L119.34342793055943,129.7719613577019L121.33248506273543,129.75087728505852L123.3215421949114,130.85804425818606L125.3105993270874,130.21456970522965L127.29965645926339,131.14542334439054L129.28871359143938,131.8545676496511L131.27777072361536,132.2057968257662L133.26682785579138,131.82119770478604L135.25588498796736,132.75326221796487L137.24494212014335,131.96865703067093L139.23399925231934,132.9284522542152L141.22305638449532,134.04997502843185L143.2121135166713,133.68060720476436L145.20117064884732,133.85988731362033L147.1902277810233,134.85398950411644L149.1792849131993,134.56405273940902L151.16834204537525,135.83521603126846L153.15739917755127,134.78243983656824L155.14645630972726,135.29611904348616L157.13551344190324,135.24189548872215L159.12457057407923,136.57284211011995L161.11362770625524,136.24748948897982L163.10268483843123,136.94766978766265L165.09174197060722,137.99720525680087L167.0807991027832,137.7517655590934L169.0698562349592,138.5172962470165L171.0589133671352,137.4618661489027L173.0479704993112,139.12380552896553L175.03702763148715,138.13313719370151L177.02608476366314,140.17283009700486L179.01514189583915,139.45959550566226L181.00419902801514,139.81313056637575L182.99325616019112,140.79799958388023L184.9823132923671,140.51754481567622L186.9713704245431,139.44903861355425L188.9604275567191,142.06322531261583L190.9494846888951,140.94660569061247L192.93854182107108,140.6529078849382L194.92759895324707,141.74518180808596L196.91665608542309,143.21893733512684L198.90571321759904,144.37761207557867L200.89477034977503,143.82543175927583L202.88382748195102,141.86058844368134L204.87288461412703,144.36014740790466L206.86194174630302,144.60171331688656L208.850998878479,144.89223911163717L210.840056010655,143.88049118749632L212.82911314283098,143.87192590256987L214.818170275007,146.2236225941545L216.80722740718298,145.69409131789723L218.79628453935896,147.62339724639935L220.78534167153492,145.8938299060339L222.77439880371094,147.21682812517017L224.76345593588692,146.96423167559144L226.7525130680629,147.7859574535023L228.7415702002389,148.9574752433885L230.7306273324149,148.59516121203146L232.7196844645909,149.1828389518655L234.70874159676688,148.64346112861102L236.69779872894287,150.69420205451314L238.68685586111886,149.58889424846805L240.67591299329487,150.470441102564L242.66497012547086,152.49574643900968L244.65402725764682,150.47283673121086L246.6430843898228,151.59162134951814L248.63214152199882,153.38657296475128L250.6211986541748,153.8028588674817L252.6102557863508,152.80482256914703L254.59931291852678,153.07578041991263L256.58837005070274,153.12354455267447L258.57742718287875,154.495961275391" fill="none"></path></g><g><path style="fill: none;" stroke="rgb(0, 153, 136)" stroke-width="2px" d="M21.879628453935894,30.415068761769266L23.868685586111887,67.38211957749027L25.857742718287877,76.65381966908394L27.846799850463867,83.35924023905575L29.835856982639857,85.95414590556962L31.824914114815847,88.31728266830011L33.81397124699184,92.63104667175308L35.80302837916783,92.53069174956303L37.792085511343814,96.367584483608L39.78114264351981,95.75737360292656L41.7701997756958,97.96513072656377L43.75925690787179,99.43875055879452L45.74831404004778,100.38556250549291L47.737371172223774,100.83760726898905L49.72642830439976,102.08206724931917L51.715485436575754,103.78846914479495L53.70454256875175,104.56939647741673L55.693599700927734,105.59431805119534L57.68265683310373,106.20651045681227L59.671713965279714,106.13229371574037L61.6607710974557,107.97028365142833L63.649828229631694,109.69089270520779L65.63888536180768,109.4646477003243L67.62794249398368,110.88360701880583L69.61699962615967,109.70110442450951L71.60605675833565,110.6217697203757L73.59511389051166,109.9838999774684L75.58417102268763,112.52211923001822L77.57322815486363,112.50282508849736L79.56228528703961,112.65996486221327L81.55134241921562,112.88196564987433L83.5403995513916,113.295660667736L85.5294566835676,114.2942981069429L87.51851381574357,114.88900293760491L89.50757094791958,114.38787831854239L91.49662808009556,115.4521900701378L93.48568521227155,115.49380976562692L95.47474234444755,115.4355189778575L97.46379947662354,116.67210644777938L99.45285660879952,117.48482002297008L101.44191374097551,117.32095563113016L103.43097087315151,118.04496852031848L105.4200280053275,119.0738896743559L107.4090851375035,120.28655585062276L109.39814226967948,120.8730353039544L111.38719940185547,121.11368875306512L113.37625653403146,121.13551614568782L115.36531366620746,121.41078164069333L117.35437079838344,122.18902436911993L119.34342793055943,122.34552252243708L121.33248506273543,122.2985275506351L123.3215421949114,123.38669357012948L125.3105993270874,121.40941309700365L127.29965645926339,121.91547903469986L129.28871359143938,122.10368029741156L131.27777072361536,123.01890005543362L133.26682785579138,123.52063545276529L135.25588498796736,126.57247274187998L137.24494212014335,124.74261096958297L139.23399925231934,125.75353235377399L141.22305638449532,125.75386788568568L143.2121135166713,128.22830572830713L145.20117064884732,124.50733688227493L147.1902277810233,127.26259071286786L149.1792849131993,128.2150948154112L151.16834204537525,127.84671459810254L153.15739917755127,126.94233379960617L155.14645630972726,127.71119867795748L157.13551344190324,127.40975456351678L159.12457057407923,128.3670177741352L161.11362770625524,129.89975586793565L163.10268483843123,128.96575491371246L165.09174197060722,129.95535765969572L167.0807991027832,128.94041759196062L169.0698562349592,129.46640033474063L171.0589133671352,130.1378414862836L173.0479704993112,129.98040724026288L175.03702763148715,131.54285705790898L177.02608476366314,130.24007671373164L179.01514189583915,133.63204135639646L181.00419902801514,131.77549594540199L182.99325616019112,133.26559054700982L184.9823132923671,131.69247296645594L186.9713704245431,133.98725393820027L188.9604275567191,133.2329065846283L190.9494846888951,135.18936568538425L192.93854182107108,134.80298898868708L194.92759895324707,134.00767130683454L196.91665608542309,136.7525485458044L198.90571321759904,136.27448482575292L200.89477034977503,134.48623814008806L202.88382748195102,135.83273256242978L204.87288461412703,135.66642382169692L206.86194174630302,135.69978873996598L208.850998878479,139.7980145964194L210.840056010655,137.52892922077038L212.82911314283098,138.36693600781416L214.818170275007,139.1432114321965L216.80722740718298,139.37825649576695L218.79628453935896,139.4313944803197L220.78534167153492,141.754089211062L222.77439880371094,142.79757127604626L224.76345593588692,141.26008235468606L226.7525130680629,141.64899229730713L228.7415702002389,142.75504773984585L230.7306273324149,142.81434283515222L232.7196844645909,144.5076772690563L234.70874159676688,143.3159662373506L236.69779872894287,144.1078365856797L238.68685586111886,149.35870273887193L240.67591299329487,146.85502844309676L242.66497012547086,147.8978325118044L244.65402725764682,148.374388806248L246.6430843898228,147.18377432443626L248.63214152199882,148.5490726668342L250.6211986541748,152.9208367097146L252.6102557863508,151.9998002791559L254.59931291852678,151.9695563936951L256.58837005070274,153.74694152197063L258.57742718287875,155.21941947325652" fill="none"></path></g></g></g></g></g></g><g transform="translate(51, 176)" clip-path="url(#clip_1)"><clipPath id="clip_1"><rect width="278" height="23"></rect></clipPath><g><g><line x1="0" y1="0" x2="0" y2="5" style="visibility: inherit;" fill="rgb(0, 0, 0)" stroke="rgb(204, 204, 204)" stroke-width="1px"></line><line x1="19.890571321759904" y1="0" x2="19.890571321759904" y2="5" style="visibility: inherit;" fill="rgb(0, 0, 0)" stroke="rgb(204, 204, 204)" stroke-width="1px"></line><line x1="39.78114264351981" y1="0" x2="39.78114264351981" y2="5" style="visibility: inherit;" fill="rgb(0, 0, 0)" stroke="rgb(204, 204, 204)" stroke-width="1px"></line><line x1="59.671713965279714" y1="0" x2="59.671713965279714" y2="5" style="visibility: inherit;" fill="rgb(0, 0, 0)" stroke="rgb(204, 204, 204)" stroke-width="1px"></line><line x1="79.56228528703961" y1="0" x2="79.56228528703961" y2="5" style="visibility: inherit;" fill="rgb(0, 0, 0)" stroke="rgb(204, 204, 204)" stroke-width="1px"></line><line x1="99.45285660879952" y1="0" x2="99.45285660879952" y2="5" style="visibility: inherit;" fill="rgb(0, 0, 0)" stroke="rgb(204, 204, 204)" stroke-width="1px"></line><line x1="119.34342793055943" y1="0" x2="119.34342793055943" y2="5" style="visibility: inherit;" fill="rgb(0, 0, 0)" stroke="rgb(204, 204, 204)" stroke-width="1px"></line><line x1="139.23399925231934" y1="0" x2="139.23399925231934" y2="5" style="visibility: inherit;" fill="rgb(0, 0, 0)" stroke="rgb(204, 204, 204)" stroke-width="1px"></line><line x1="159.12457057407923" y1="0" x2="159.12457057407923" y2="5" style="visibility: inherit;" fill="rgb(0, 0, 0)" stroke="rgb(204, 204, 204)" stroke-width="1px"></line><line x1="179.01514189583915" y1="0" x2="179.01514189583915" y2="5" style="visibility: inherit;" fill="rgb(0, 0, 0)" stroke="rgb(204, 204, 204)" stroke-width="1px"></line><line x1="198.90571321759904" y1="0" x2="198.90571321759904" y2="5" style="visibility: inherit;" fill="rgb(0, 0, 0)" stroke="rgb(204, 204, 204)" stroke-width="1px"></line><line x1="218.79628453935896" y1="0" x2="218.79628453935896" y2="5" style="visibility: inherit;" fill="rgb(0, 0, 0)" stroke="rgb(204, 204, 204)" stroke-width="1px"></line><line x1="238.68685586111886" y1="0" x2="238.68685586111886" y2="5" style="visibility: inherit;" fill="rgb(0, 0, 0)" stroke="rgb(204, 204, 204)" stroke-width="1px"></line><line x1="258.57742718287875" y1="0" x2="258.57742718287875" y2="5" style="visibility: inherit;" fill="rgb(0, 0, 0)" stroke="rgb(204, 204, 204)" stroke-width="1px"></line><line x1="278.4679985046387" y1="0" x2="278.4679985046387" y2="5" style="visibility: inherit;" fill="rgb(0, 0, 0)" stroke="rgb(204, 204, 204)" stroke-width="1px"></line></g><g transform="translate(0, 8)"><text style="text-anchor: middle; visibility: hidden; font-family: Roboto, sans-serif; font-size: 12px; font-weight: 200;" x="0" y="0" dx="0em" dy="0.95em" fill="rgb(33, 33, 33)" stroke="none" stroke-width="1px">-10</text><text style="text-anchor: middle; visibility: inherit; font-family: Roboto, sans-serif; font-size: 12px; font-weight: 200;" x="19.890571321759904" y="0" dx="0em" dy="0.95em" fill="rgb(33, 33, 33)" stroke="none" stroke-width="1px">0</text><text style="text-anchor: middle; visibility: hidden; font-family: Roboto, sans-serif; font-size: 12px; font-weight: 200;" x="39.78114264351981" y="0" dx="0em" dy="0.95em" fill="rgb(33, 33, 33)" stroke="none" stroke-width="1px">10</text><text style="text-anchor: middle; visibility: inherit; font-family: Roboto, sans-serif; font-size: 12px; font-weight: 200;" x="59.671713965279714" y="0" dx="0em" dy="0.95em" fill="rgb(33, 33, 33)" stroke="none" stroke-width="1px">20</text><text style="text-anchor: middle; visibility: hidden; font-family: Roboto, sans-serif; font-size: 12px; font-weight: 200;" x="79.56228528703961" y="0" dx="0em" dy="0.95em" fill="rgb(33, 33, 33)" stroke="none" stroke-width="1px">30</text><text style="text-anchor: middle; visibility: inherit; font-family: Roboto, sans-serif; font-size: 12px; font-weight: 200;" x="99.45285660879952" y="0" dx="0em" dy="0.95em" fill="rgb(33, 33, 33)" stroke="none" stroke-width="1px">40</text><text style="text-anchor: middle; visibility: hidden; font-family: Roboto, sans-serif; font-size: 12px; font-weight: 200;" x="119.34342793055943" y="0" dx="0em" dy="0.95em" fill="rgb(33, 33, 33)" stroke="none" stroke-width="1px">50</text><text style="text-anchor: middle; visibility: inherit; font-family: Roboto, sans-serif; font-size: 12px; font-weight: 200;" x="139.23399925231934" y="0" dx="0em" dy="0.95em" fill="rgb(33, 33, 33)" stroke="none" stroke-width="1px">60</text><text style="text-anchor: middle; visibility: hidden; font-family: Roboto, sans-serif; font-size: 12px; font-weight: 200;" x="159.12457057407923" y="0" dx="0em" dy="0.95em" fill="rgb(33, 33, 33)" stroke="none" stroke-width="1px">70</text><text style="text-anchor: middle; visibility: inherit; font-family: Roboto, sans-serif; font-size: 12px; font-weight: 200;" x="179.01514189583915" y="0" dx="0em" dy="0.95em" fill="rgb(33, 33, 33)" stroke="none" stroke-width="1px">80</text><text style="text-anchor: middle; visibility: hidden; font-family: Roboto, sans-serif; font-size: 12px; font-weight: 200;" x="198.90571321759904" y="0" dx="0em" dy="0.95em" fill="rgb(33, 33, 33)" stroke="none" stroke-width="1px">90</text><text style="text-anchor: middle; visibility: inherit; font-family: Roboto, sans-serif; font-size: 12px; font-weight: 200;" x="218.79628453935896" y="0" dx="0em" dy="0.95em" fill="rgb(33, 33, 33)" stroke="none" stroke-width="1px">100</text><text style="text-anchor: middle; visibility: hidden; font-family: Roboto, sans-serif; font-size: 12px; font-weight: 200;" x="238.68685586111886" y="0" dx="0em" dy="0.95em" fill="rgb(33, 33, 33)" stroke="none" stroke-width="1px">110</text><text style="text-anchor: middle; visibility: inherit; font-family: Roboto, sans-serif; font-size: 12px; font-weight: 200;" x="258.57742718287875" y="0" dx="0em" dy="0.95em" fill="rgb(33, 33, 33)" stroke="none" stroke-width="1px">120</text><text style="text-anchor: middle; visibility: hidden; font-family: Roboto, sans-serif; font-size: 12px; font-weight: 200;" x="278.4679985046387" y="0" dx="0em" dy="0.95em" fill="rgb(33, 33, 33)" stroke="none" stroke-width="1px">130</text></g><line x1="0" y1="0" x2="278.4679985046387" y2="0" fill="rgb(0, 0, 0)" stroke="rgb(204, 204, 204)" stroke-width="1px"></line></g></g></g></g></svg>